<?xml version="1.0" encoding="utf-8"?>
<!-- Generator: Adobe Illustrator 16.0.0, SVG Export Plug-In . SVG Version: 6.00 Build 0)  -->
<!DOCTYPE svg PUBLIC "-//W3C//DTD SVG 1.1//EN" "http://www.w3.org/Graphics/SVG/1.1/DTD/svg11.dtd">
<svg version="1.1" id="Capa_1" xmlns="http://www.w3.org/2000/svg" xmlns:xlink="http://www.w3.org/1999/xlink" x="0px" y="0px"
	 width="774.404px" height="400.021px" viewBox="0 0 774.404 400.021" enable-background="new 0 0 774.404 400.021"
	 xml:space="preserve">
<g transform="translate(12.113813,9.9321205)">
	<path fill="#010202" d="M384.151,156.873c9.947,4.155,20.258,7.379,30.389,11.067c7.461,2.718,3.951,15.633-3.705,15.704
		c-2.449,0.023-7.441-0.709-9.891-0.686c2.664,1.477,7.875,3.703,10.539,5.18c6.414,3.551,2.98,15.117-4.385,14.359
		c-3.072-0.314-8.688-1.385-11.76-1.699c2.131,1.291,6.807,3.334,8.938,4.627c6.477,3.924,2.686,16.672-4.809,15.584
		c-2.635-0.381-7.814-1.518-10.449-1.898c1.146,0.742,4.838,2.238,5.984,2.98c6.926,4.484,3.117,14.422-4.504,13.064
		c-15.219-2.705-29.258-5.197-44.062-9.576c-15.015-4.443-20.438-22.785-42.651-29.404c3.91-13.484,7.821-26.966,11.732-40.449
		c19.897,5.888,29.18-6.511,40.314-9.188C369.005,143.373,373.796,152.546,384.151,156.873L384.151,156.873z"/>
	<path fill="#010202" d="M376.601,240.04c-0.779,2.629-1.557,5.258-2.334,7.889c-0.93,3.141-4.281,4.961-7.42,4.033
		c-5.932-1.756-11.863-3.512-17.796-5.268c-3.138-0.928-4.965-4.268-4.032-7.42c0.653-2.205,1.117-3.775,1.77-5.98
		C353.128,235.062,365.263,238.157,376.601,240.04z"/>
	<path fill="#010202" d="M395.933,88.251c5.932,1.756,11.863,3.511,17.795,5.266c3.154,0.934,4.963,4.274,4.031,7.421
		c-5.408,18.283-10.631,35.93-16.039,54.213c-6.268-2.163-6.756-1.58-15.855-5.77c-5.492-2.53-8.396-4.328-12.076-7.339
		c5.096-17.223,9.627-32.536,14.723-49.759C389.444,89.13,392.778,87.319,395.933,88.251L395.933,88.251z"/>
	<path fill="#010202" d="M352.006,111.352c14.195-1.663,17.103-13.507,20.424-19.674c9.07,2.683,67.09,20.554,73.961,22.587
		c-2.523,8.527-7.506,25.363-10.029,33.892c-9.258-2.739-70.585-20.937-81.838-24.267c-3.154-0.934-4.965-4.267-4.032-7.421
		C351.75,112.218,350.748,115.604,352.006,111.352z"/>
</g>
<rect x="273.896" y="50.353" fill="none" width="226.612" height="24.487"/>
<text transform="matrix(1 0 0 1 284.5864 73.5107)" font-family="'Impact'" font-size="29.2777">WEBPROLETARIAN</text>
<g>
	<path fill="#010202" d="M254.112,0l24.21,279.552l108.72,30.99l109.009-30.99L520.292,0H254.112z M475.263,262.376l-88.219,25.098
		l-87.935-25.098L278.29,22.182h217.793L475.263,262.376z"/>
</g>
<g>
	<path fill="#575756" d="M15.513,369.421c0-0.967-0.249-1.639-0.747-2.016c-0.498-0.375-1.23-0.563-2.197-0.563
		c-1.65,0-3.181,0.402-4.592,1.207c-1.411,0.807-2.117,1.693-2.117,2.66c0,0.615,0.266,1.141,0.798,1.574
		c0.532,0.436,1.907,0.975,4.124,1.619c2.324,0.674,4.05,1.412,5.178,2.219c1.128,0.805,1.692,1.775,1.692,2.908
		c0,1.885-1.436,3.609-4.307,5.178c-2.871,1.566-5.854,2.352-8.95,2.352c-1.006,0-1.812-0.211-2.417-0.631s-0.908-0.938-0.908-1.553
		c0-0.488,0.137-0.941,0.41-1.361s0.601-0.631,0.981-0.631c0.234,0,0.449,0.039,0.645,0.117c1.025,0.439,1.982,0.66,2.871,0.66
		c1.523,0,3.235-0.428,5.134-1.283c1.899-0.854,2.849-1.691,2.849-2.512c0-0.342-0.237-0.67-0.71-0.988
		c-0.474-0.316-1.438-0.715-2.893-1.193c-2.119-0.693-3.713-1.266-4.783-1.715s-1.88-1.037-2.432-1.766
		c-0.552-0.727-0.828-1.604-0.828-2.629c0-1.826,1.064-3.525,3.193-5.098s4.629-2.357,7.5-2.357c1.65,0,2.952,0.326,3.904,0.98
		s1.428,1.402,1.428,2.242C18.34,368.562,17.397,369.421,15.513,369.421z"/>
	<path fill="#575756" d="M21.797,375.441v0.016c0.313-1.777,0.469-2.793,0.469-3.047c0-0.723,0.159-1.328,0.476-1.816
		s0.759-0.732,1.326-0.732c0.664,0,1.182,0.156,1.553,0.469s0.557,0.664,0.557,1.055s-0.181,1.195-0.542,2.416l-0.088,0.322
		c-0.537,1.885-0.859,3.424-0.967,4.615s-0.161,2.152-0.161,2.885c0,0.596,0.103,1.393,0.308,2.389
		c0.029,0.176,0.044,0.322,0.044,0.439c0,0.225-0.212,0.527-0.637,0.908s-0.881,0.57-1.37,0.57c-1.289,0-1.934-0.977-1.934-2.93
		c0-1.66,0.234-3.682,0.703-6.064C21.631,376.408,21.719,375.91,21.797,375.441z M28.872,363.4c0,0.693-0.313,1.303-0.938,1.824
		c-0.625,0.523-1.167,0.783-1.626,0.783c-0.586,0-1.106-0.244-1.56-0.732s-0.681-0.977-0.681-1.465c0-0.703,0.225-1.271,0.674-1.707
		c0.449-0.434,1.094-0.65,1.934-0.65c0.654,0,1.184,0.193,1.589,0.578C28.669,362.417,28.872,362.873,28.872,363.4z"/>
	<path fill="#575756" d="M33.237,384.304c-0.117,1.006-0.679,1.508-1.685,1.508c-1.279,0-1.919-0.922-1.919-2.768
		c0-2.988,0.161-5.543,0.483-7.662c0.254-1.65,0.381-3.271,0.381-4.863c0-0.381,0.122-0.699,0.366-0.959
		c0.244-0.258,0.586-0.389,1.025-0.389c1.465,0,2.197,0.889,2.197,2.666c0,0.576-0.259,2.047-0.776,4.41
		c-0.313,1.406-0.469,2.426-0.469,3.061c2.793-6.133,5.313-9.199,7.559-9.199c0.908,0,1.638,0.361,2.19,1.084
		s0.837,2.324,0.857,4.805c0.01,2.266,0.127,3.398,0.352,3.398c0.176,0,0.786-1.098,1.831-3.295c1.162-2.432,2.156-4.039,2.981-4.82
		s1.692-1.172,2.6-1.172c1.084,0,1.87,0.467,2.358,1.398c0.488,0.934,0.83,2.508,1.025,4.725c0.146,1.758,0.344,3.086,0.593,3.984
		s0.676,1.494,1.282,1.787c0.488,0.234,0.732,0.586,0.732,1.055c0,0.42-0.278,0.842-0.835,1.268
		c-0.557,0.424-1.123,0.637-1.699,0.637c-0.996,0-1.775-0.49-2.336-1.473c-0.562-0.98-0.94-2.951-1.135-5.91
		c-0.107-1.426-0.222-2.369-0.344-2.834c-0.122-0.463-0.305-0.695-0.549-0.695c-0.215,0-0.527,0.35-0.938,1.047
		c-0.41,0.699-1.118,2.088-2.124,4.168c-0.889,1.875-1.653,3.184-2.292,3.926s-1.326,1.113-2.058,1.113
		c-0.566,0-1.135-0.244-1.707-0.732s-0.881-2.262-0.93-5.318c-0.049-2.725-0.225-4.086-0.527-4.086c-0.41,0-1.396,1.211-2.959,3.633
		S34.028,382.39,33.237,384.304z"/>
	<path fill="#575756" d="M62.769,384.128c-0.166,0.684-0.332,1.719-0.498,3.105l-0.703,5.756c-0.117,0.938-0.344,1.588-0.681,1.949
		s-0.75,0.541-1.238,0.541c-0.439,0-0.857-0.164-1.252-0.49c-0.396-0.328-0.593-0.691-0.593-1.092c0-0.791,0.122-1.703,0.366-2.738
		c1.455-5.811,2.251-11.842,2.388-18.092v-0.293c0-1.309,0.037-2.18,0.11-2.615c0.073-0.434,0.283-0.816,0.63-1.148
		s0.837-0.498,1.472-0.498c1.064,0,1.597,0.814,1.597,2.445c0,0.664-0.122,1.793-0.366,3.385l-0.146,1.01
		c1.113-1.855,2.437-3.395,3.97-4.621c1.533-1.225,2.905-1.838,4.116-1.838c1.094,0,2.024,0.391,2.791,1.172s1.15,1.762,1.15,2.943
		c0,3.154-1.223,6.023-3.669,8.605c-2.446,2.584-4.866,3.875-7.258,3.875C63.818,385.49,63.091,385.037,62.769,384.128z
		 M71.367,372.218c-1.191,0-2.737,1.162-4.636,3.486s-2.849,4.15-2.849,5.479c0,0.342,0.168,0.648,0.505,0.916
		c0.337,0.27,0.73,0.402,1.179,0.402c1.24,0,2.664-0.975,4.27-2.922c1.606-1.949,2.41-3.83,2.41-5.646
		c0-0.605-0.093-1.043-0.278-1.313C71.782,372.353,71.582,372.218,71.367,372.218z"/>
	<path fill="#575756" d="M84.067,360.369c1.055,0,1.582,0.576,1.582,1.729c0,0.527-0.073,1.096-0.22,1.705
		c-0.146,0.611-0.547,2.123-1.201,4.535c-0.479,1.748-0.842,3.654-1.091,5.719c-0.249,2.066-0.374,3.68-0.374,4.842
		c0,1.24,0.093,2.715,0.278,4.424c0.049,0.459,0.073,0.748,0.073,0.865c0,0.586-0.215,1.088-0.645,1.508s-0.898,0.631-1.406,0.631
		c-0.693,0-1.182-0.328-1.465-0.982s-0.425-1.777-0.425-3.369c0-3.428,0.403-7.465,1.208-12.113s1.465-7.393,1.978-8.232
		S83.442,360.369,84.067,360.369z"/>
	<path fill="#575756" d="M100.342,380.128c0,1.016-0.854,2.23-2.563,3.641s-3.638,2.117-5.786,2.117
		c-1.65,0-2.949-0.521-3.896-1.561c-0.947-1.041-1.421-2.488-1.421-4.344c0-2.734,0.967-5.297,2.9-7.689s3.999-3.59,6.196-3.59
		c1.094,0,1.973,0.348,2.637,1.041s0.996,1.518,0.996,2.475c0,1.699-0.815,3.318-2.446,4.855c-1.631,1.539-3.721,2.602-6.27,3.188
		c-0.293,0.068-0.439,0.244-0.439,0.527c0,0.469,0.208,0.914,0.623,1.34c0.415,0.424,0.969,0.637,1.663,0.637
		c1.963,0,3.911-1.01,5.845-3.031c0.371-0.391,0.732-0.586,1.084-0.586C100.049,379.148,100.342,379.474,100.342,380.128z
		 M90.513,377.537c1.543-0.313,2.903-0.973,4.08-1.979s1.765-1.918,1.765-2.738c0-0.322-0.09-0.594-0.271-0.814
		c-0.181-0.219-0.413-0.328-0.696-0.328c-0.85,0-1.792,0.625-2.827,1.875S90.845,376.13,90.513,377.537z"/>
	<path fill="#575756" d="M136.523,384.597c-0.146,0.234-0.403,0.438-0.769,0.607s-0.671,0.256-0.916,0.256
		c-0.654,0-1.248-0.332-1.78-0.996s-1.316-2.352-2.351-5.061c-1.035-2.711-1.606-4.305-1.714-4.783l-3.618,6.52
		c-2.002,3.604-3.335,5.404-3.999,5.404c-0.479,0-0.889-0.115-1.23-0.344c-0.342-0.23-0.667-0.682-0.974-1.355
		s-0.725-2.176-1.252-4.504c-0.527-2.33-1.003-4.682-1.428-7.061c-0.425-2.377-0.706-3.846-0.842-4.402
		c-0.088-0.371-0.171-0.668-0.249-0.893c-0.254-0.781-0.381-1.348-0.381-1.699c0-0.43,0.19-0.848,0.571-1.254
		c0.381-0.404,0.825-0.607,1.333-0.607c0.928,0,1.577,0.74,1.948,2.219c0.371,1.48,0.581,2.527,0.63,3.143l0.381,2.477
		c0.117,0.83,0.269,1.723,0.454,2.68c0.195,0.996,0.352,1.846,0.469,2.549c0.391,2.354,0.645,3.652,0.762,3.896
		c1.826-2.91,3.032-4.895,3.618-5.955c0.586-1.059,1.455-2.818,2.607-5.279c0.137-0.244,0.359-0.467,0.667-0.668
		c0.308-0.199,0.623-0.299,0.945-0.299c0.42,0,0.771,0.215,1.055,0.645s0.767,1.533,1.45,3.311c0.029,0.107,0.078,0.238,0.146,0.395
		l1.187,3.135c1.055,2.803,1.636,4.238,1.743,4.307c2.793-5.283,4.468-10.693,5.024-16.23c0-0.381,0.168-0.682,0.505-0.9
		c0.337-0.221,0.725-0.33,1.165-0.33c0.605,0,1.035,0.189,1.289,0.564c0.254,0.377,0.381,0.799,0.381,1.268
		c0,0.967-0.264,2.492-0.791,4.576c-0.527,2.086-1.309,4.34-2.344,6.762l-0.425,1.01c-0.107,0.283-0.894,1.934-2.358,4.951
		C136.982,383.576,136.68,384.226,136.523,384.597z"/>
	<path fill="#575756" d="M157.617,380.128c0,1.016-0.854,2.23-2.563,3.641s-3.638,2.117-5.786,2.117
		c-1.65,0-2.949-0.521-3.896-1.561c-0.947-1.041-1.421-2.488-1.421-4.344c0-2.734,0.967-5.297,2.9-7.689s3.999-3.59,6.196-3.59
		c1.094,0,1.973,0.348,2.637,1.041s0.996,1.518,0.996,2.475c0,1.699-0.815,3.318-2.446,4.855c-1.631,1.539-3.721,2.602-6.27,3.188
		c-0.293,0.068-0.439,0.244-0.439,0.527c0,0.469,0.208,0.914,0.623,1.34c0.415,0.424,0.969,0.637,1.663,0.637
		c1.963,0,3.911-1.01,5.845-3.031c0.371-0.391,0.732-0.586,1.084-0.586C157.324,379.148,157.617,379.474,157.617,380.128z
		 M147.788,377.537c1.543-0.313,2.903-0.973,4.08-1.979s1.765-1.918,1.765-2.738c0-0.322-0.09-0.594-0.271-0.814
		c-0.181-0.219-0.413-0.328-0.696-0.328c-0.85,0-1.792,0.625-2.827,1.875S148.12,376.13,147.788,377.537z"/>
	<path fill="#575756" d="M161.514,370.945c0.947-5.615,1.628-8.941,2.043-9.977s1.14-1.553,2.175-1.553
		c0.801,0,1.201,0.709,1.201,2.125c0,0.967-0.4,2.973-1.201,6.02c-0.42,1.504-0.928,3.779-1.523,6.826
		c1.211-1.611,2.532-2.914,3.962-3.91s2.708-1.494,3.831-1.494c0.918,0,1.682,0.393,2.292,1.178c0.61,0.787,0.916,1.713,0.916,2.777
		c0,3.008-1.155,5.834-3.464,8.48s-4.763,3.971-7.361,3.971c-0.781,0-1.509-0.213-2.183-0.639c-0.674-0.424-1.055-0.969-1.143-1.633
		c-0.039-0.361-0.112-0.6-0.22-0.717s-0.22-0.244-0.337-0.381c-0.283-0.293-0.425-0.703-0.425-1.23c0-0.605,0.151-1.865,0.454-3.779
		L161.514,370.945z M163.242,381.345c0.41,0.684,0.869,1.025,1.377,1.025c0.918,0,1.936-0.422,3.054-1.268
		c1.118-0.844,2.09-2.033,2.915-3.566s1.238-2.809,1.238-3.824c0-0.967-0.151-1.449-0.454-1.449c-1.553,0-3.296,1.135-5.229,3.404
		C164.209,377.939,163.242,379.832,163.242,381.345z"/>
	<path fill="#575756" d="M199.204,384.597c-0.146,0.234-0.403,0.438-0.769,0.607s-0.671,0.256-0.916,0.256
		c-0.654,0-1.248-0.332-1.78-0.996s-1.316-2.352-2.351-5.061c-1.035-2.711-1.606-4.305-1.714-4.783l-3.618,6.52
		c-2.002,3.604-3.335,5.404-3.999,5.404c-0.479,0-0.889-0.115-1.23-0.344c-0.342-0.23-0.667-0.682-0.974-1.355
		s-0.725-2.176-1.252-4.504c-0.527-2.33-1.003-4.682-1.428-7.061c-0.425-2.377-0.706-3.846-0.842-4.402
		c-0.088-0.371-0.171-0.668-0.249-0.893c-0.254-0.781-0.381-1.348-0.381-1.699c0-0.43,0.19-0.848,0.571-1.254
		c0.381-0.404,0.825-0.607,1.333-0.607c0.928,0,1.577,0.74,1.948,2.219c0.371,1.48,0.581,2.527,0.63,3.143l0.381,2.477
		c0.117,0.83,0.269,1.723,0.454,2.68c0.195,0.996,0.352,1.846,0.469,2.549c0.391,2.354,0.645,3.652,0.762,3.896
		c1.826-2.91,3.032-4.895,3.618-5.955c0.586-1.059,1.455-2.818,2.607-5.279c0.137-0.244,0.359-0.467,0.667-0.668
		c0.308-0.199,0.623-0.299,0.945-0.299c0.42,0,0.771,0.215,1.055,0.645s0.767,1.533,1.45,3.311c0.029,0.107,0.078,0.238,0.146,0.395
		l1.187,3.135c1.055,2.803,1.636,4.238,1.743,4.307c2.793-5.283,4.468-10.693,5.024-16.23c0-0.381,0.168-0.682,0.505-0.9
		c0.337-0.221,0.725-0.33,1.165-0.33c0.605,0,1.035,0.189,1.289,0.564c0.254,0.377,0.381,0.799,0.381,1.268
		c0,0.967-0.264,2.492-0.791,4.576c-0.527,2.086-1.309,4.34-2.344,6.762l-0.425,1.01c-0.107,0.283-0.894,1.934-2.358,4.951
		C199.663,383.576,199.36,384.226,199.204,384.597z"/>
	<path fill="#575756" d="M221.03,377.742c-0.654,2.285-1.897,4.211-3.728,5.777c-1.831,1.568-3.66,2.352-5.486,2.352
		c-1.445,0-2.637-0.529-3.574-1.59c-0.938-1.059-1.406-2.359-1.406-3.902c0-2.52,0.859-5,2.578-7.441s3.804-3.662,6.255-3.662
		c1.67,0,3.022,0.617,4.058,1.852c1.035,1.236,1.553,2.709,1.553,4.418c0,0.742-0.083,1.469-0.249,2.182V377.742z M213.413,373.113
		c-0.684,0.605-1.353,1.572-2.007,2.9s-0.981,2.66-0.981,3.998c0,0.811,0.149,1.48,0.447,2.008s0.691,0.791,1.179,0.791
		c1.211,0,2.471-0.719,3.779-2.154s1.963-3.047,1.963-4.834c0-1.006-0.212-1.832-0.637-2.482c-0.425-0.648-1.018-0.975-1.78-0.975
		c-0.723,0-1.372,0.25-1.948,0.748H213.413z"/>
	<path fill="#575756" d="M227.754,377.902l0.249-0.469c1.182-2.373,2.454-4.299,3.816-5.779c1.362-1.479,2.693-2.219,3.992-2.219
		c0.996,0,1.809,0.273,2.439,0.82s0.945,1.197,0.945,1.949c0,0.469-0.107,0.871-0.322,1.207c-0.215,0.338-0.513,0.506-0.894,0.506
		c-0.605,0-1.157-0.248-1.655-0.746c-0.352-0.322-0.63-0.484-0.835-0.484c-0.732,0-1.958,1.139-3.677,3.414
		s-2.754,4.834-3.105,7.676c-0.107,0.82-0.347,1.393-0.718,1.721c-0.371,0.326-0.874,0.49-1.509,0.49
		c-0.674,0-1.152-0.383-1.436-1.15c-0.283-0.766-0.425-2.018-0.425-3.756c0-0.713,0.02-1.676,0.059-2.887
		c0.039-1.143,0.151-2.539,0.337-4.189c0.049-0.43,0.083-0.766,0.103-1.01c0.088-0.957,0.188-1.613,0.3-1.971
		c0.112-0.355,0.374-0.691,0.784-1.004s0.864-0.469,1.362-0.469c0.527,0,0.928,0.152,1.201,0.455s0.41,0.635,0.41,0.996
		c0,0.459-0.22,1.41-0.659,2.855c-0.156,0.498-0.288,1.094-0.396,1.787L227.754,377.902z"/>
	<path fill="#575756" d="M253.345,372.937h0.015l-0.029,0.029c-0.566,0.313-1.025,0.586-1.377,0.82
		c-0.654,0.439-1.313,0.912-1.978,1.42c-0.762,0.586-1.333,1.08-1.714,1.48c-0.322,0.332-0.483,0.576-0.483,0.732
		c0,0.176,0.571,0.861,1.714,2.057c1.143,1.197,2.048,2.055,2.717,2.572s1.331,0.775,1.985,0.775l0.645-0.014
		c0.234,0,0.422,0.07,0.564,0.211c0.142,0.143,0.212,0.355,0.212,0.639c0,0.4-0.249,0.863-0.747,1.391s-1.353,0.791-2.563,0.791
		c-0.713,0-1.436-0.262-2.168-0.783s-1.855-1.701-3.369-3.537c-1.211-1.475-1.87-2.213-1.978-2.213
		c-0.068,0-0.273,0.176-0.615,0.527s-0.566,0.621-0.674,0.807v0.014c-0.166,0.811-0.249,1.871-0.249,3.18
		c0,0.654-0.193,1.186-0.579,1.596s-0.857,0.615-1.414,0.615c-0.576,0-1.025-0.164-1.348-0.49c-0.322-0.328-0.483-0.656-0.483-0.988
		c0-0.352,0.122-1.123,0.366-2.314c0.469-2.314,0.864-5.387,1.187-9.215c0.313-3.057,0.586-5.441,0.82-7.156
		c0.234-1.713,0.444-2.836,0.63-3.369c0.186-0.531,0.474-0.955,0.864-1.273c0.391-0.316,0.811-0.477,1.26-0.477
		c0.43,0,0.774,0.18,1.033,0.535c0.259,0.357,0.388,0.789,0.388,1.297c0,0.635-0.41,3.115-1.23,7.441l-0.352,1.918h0.015
		c-0.43,2.822-0.649,4.453-0.659,4.893l4.497-4.072c2.295-2.217,3.979-3.324,5.054-3.324c1.035,0,1.553,0.414,1.553,1.244
		C254.854,371.73,254.351,372.478,253.345,372.937z"/>
	<path fill="#575756" d="M270.542,380.128c0,1.016-0.854,2.23-2.563,3.641s-3.638,2.117-5.786,2.117
		c-1.65,0-2.949-0.521-3.896-1.561c-0.947-1.041-1.421-2.488-1.421-4.344c0-2.734,0.967-5.297,2.9-7.689s3.999-3.59,6.196-3.59
		c1.094,0,1.973,0.348,2.637,1.041s0.996,1.518,0.996,2.475c0,1.699-0.815,3.318-2.446,4.855c-1.631,1.539-3.721,2.602-6.27,3.188
		c-0.293,0.068-0.439,0.244-0.439,0.527c0,0.469,0.208,0.914,0.623,1.34c0.415,0.424,0.969,0.637,1.663,0.637
		c1.963,0,3.911-1.01,5.845-3.031c0.371-0.391,0.732-0.586,1.084-0.586C270.249,379.148,270.542,379.474,270.542,380.128z
		 M260.713,377.537c1.543-0.313,2.903-0.973,4.08-1.979s1.765-1.918,1.765-2.738c0-0.322-0.09-0.594-0.271-0.814
		c-0.181-0.219-0.413-0.328-0.696-0.328c-0.85,0-1.792,0.625-2.827,1.875S261.045,376.13,260.713,377.537z"/>
	<path fill="#575756" d="M276.636,377.902l0.249-0.469c1.182-2.373,2.454-4.299,3.816-5.779c1.362-1.479,2.693-2.219,3.992-2.219
		c0.996,0,1.809,0.273,2.439,0.82s0.945,1.197,0.945,1.949c0,0.469-0.107,0.871-0.322,1.207c-0.215,0.338-0.513,0.506-0.894,0.506
		c-0.605,0-1.157-0.248-1.655-0.746c-0.352-0.322-0.63-0.484-0.835-0.484c-0.732,0-1.958,1.139-3.677,3.414
		s-2.754,4.834-3.105,7.676c-0.107,0.82-0.347,1.393-0.718,1.721c-0.371,0.326-0.874,0.49-1.509,0.49
		c-0.674,0-1.152-0.383-1.436-1.15c-0.283-0.766-0.425-2.018-0.425-3.756c0-0.713,0.02-1.676,0.059-2.887
		c0.039-1.143,0.151-2.539,0.337-4.189c0.049-0.43,0.083-0.766,0.103-1.01c0.088-0.957,0.188-1.613,0.3-1.971
		c0.112-0.355,0.374-0.691,0.784-1.004s0.864-0.469,1.362-0.469c0.527,0,0.928,0.152,1.201,0.455s0.41,0.635,0.41,0.996
		c0,0.459-0.22,1.41-0.659,2.855c-0.156,0.498-0.288,1.094-0.396,1.787L276.636,377.902z"/>
	<path fill="#575756" d="M295.679,381.447c-0.039-0.527-0.879-1.172-2.52-1.934c-2.012-0.967-3.296-1.799-3.853-2.498
		c-0.557-0.697-0.835-1.457-0.835-2.277c0-1.729,0.969-3.238,2.908-4.533c1.938-1.293,3.748-1.941,5.427-1.941
		c1.65,0,2.476,0.719,2.476,2.154c0,0.381-0.188,0.723-0.564,1.025s-0.696,0.453-0.959,0.453c-0.107,0-0.298-0.068-0.571-0.205
		s-0.483-0.205-0.63-0.205c-0.869,0-1.826,0.293-2.871,0.879s-1.567,1.27-1.567,2.051c0,0.381,0.186,0.75,0.557,1.105
		c0.371,0.357,1.128,0.805,2.271,1.342c1.689,0.801,2.803,1.523,3.34,2.168s0.806,1.357,0.806,2.139
		c0,1.426-0.964,2.613-2.893,3.566c-1.929,0.951-4.094,1.428-6.497,1.428c-1.768,0-2.651-0.639-2.651-1.918
		c0-0.469,0.186-0.869,0.557-1.201s0.786-0.498,1.245-0.498c0.186,0,0.474,0.068,0.864,0.205c0.391,0.146,0.752,0.219,1.084,0.219
		c0.918,0,1.88-0.146,2.886-0.439S295.356,381.876,295.679,381.447z"/>
	<path fill="#575756" d="M317.461,377.712l-0.249,2.621c-0.078,0.84-0.117,1.67-0.117,2.49c0,0.742,0.068,1.602,0.205,2.578
		c-0.098,0.342-0.342,0.635-0.732,0.879s-0.801,0.367-1.23,0.367c-1.338,0-2.007-0.85-2.007-2.549c0-0.752,0.21-2.549,0.63-5.391
		c0.293-2.041,0.439-3.561,0.439-4.557c0-0.059-0.059-0.127-0.176-0.205c-0.674-0.43-1.011-0.84-1.011-1.23
		c0-0.508,0.376-1.059,1.128-1.654c0.361-0.283,0.583-0.613,0.667-0.99c0.083-0.375,0.203-0.969,0.359-1.779
		c0.527-3.115,1.345-5.328,2.454-6.643c1.108-1.313,2.517-1.971,4.226-1.971c0.996,0,1.838,0.326,2.527,0.975
		c0.688,0.65,1.033,1.453,1.033,2.41c0,0.859-0.198,1.75-0.593,2.672c-0.396,0.924-0.916,1.385-1.56,1.385
		c-0.283,0-0.522-0.09-0.718-0.271c-0.195-0.18-0.293-0.416-0.293-0.709l0.088-1.275c0-1.523-0.317-2.285-0.952-2.285
		c-0.791,0-1.531,0.994-2.219,2.98c-0.688,1.988-1.033,3.68-1.033,5.076c0,0.146,0.093,0.221,0.278,0.221
		c2.021,0,3.45-0.01,4.285-0.029s1.252,0.303,1.252,0.967c0,0.645-0.505,1.119-1.516,1.428c-1.011,0.307-2.073,0.461-3.186,0.461
		c-0.752,0.068-1.24,0.133-1.465,0.191c-0.234,1.445-0.405,2.719-0.513,3.822V377.712z"/>
	<path fill="#575756" d="M328.228,377.902l0.249-0.469c1.182-2.373,2.454-4.299,3.816-5.779c1.362-1.479,2.693-2.219,3.992-2.219
		c0.996,0,1.809,0.273,2.439,0.82s0.945,1.197,0.945,1.949c0,0.469-0.107,0.871-0.322,1.207c-0.215,0.338-0.513,0.506-0.894,0.506
		c-0.605,0-1.157-0.248-1.655-0.746c-0.352-0.322-0.63-0.484-0.835-0.484c-0.732,0-1.958,1.139-3.677,3.414
		s-2.754,4.834-3.105,7.676c-0.107,0.82-0.347,1.393-0.718,1.721c-0.371,0.326-0.874,0.49-1.509,0.49
		c-0.674,0-1.152-0.383-1.436-1.15c-0.283-0.766-0.425-2.018-0.425-3.756c0-0.713,0.02-1.676,0.059-2.887
		c0.039-1.143,0.151-2.539,0.337-4.189c0.049-0.43,0.083-0.766,0.103-1.01c0.088-0.957,0.188-1.613,0.3-1.971
		c0.112-0.355,0.374-0.691,0.784-1.004s0.864-0.469,1.362-0.469c0.527,0,0.928,0.152,1.201,0.455s0.41,0.635,0.41,0.996
		c0,0.459-0.22,1.41-0.659,2.855c-0.156,0.498-0.288,1.094-0.396,1.787L328.228,377.902z"/>
	<path fill="#575756" d="M349.819,380.261c-2.568,3.389-5.049,5.082-7.441,5.082c-0.879,0-1.636-0.346-2.271-1.039
		s-0.952-1.578-0.952-2.652c0-2.588,1.152-5.344,3.457-8.27c2.305-2.924,4.629-4.387,6.973-4.387c1.191,0,1.973,0.602,2.344,1.803
		c1.123,0,1.685,0.43,1.685,1.289c0,0.41-0.107,1.152-0.322,2.227c-0.391,2.012-0.586,3.617-0.586,4.818
		c0,1.25,0.085,2.129,0.256,2.637s0.295,0.84,0.374,0.996s0.313,0.322,0.703,0.498c0.391,0.186,0.586,0.445,0.586,0.777
		c0,0.498-0.251,0.912-0.754,1.244s-1.028,0.498-1.575,0.498C350.459,385.783,349.634,383.943,349.819,380.261z M348.94,372.13
		c-0.986,0-2.268,1.092-3.845,3.273c-1.577,2.184-2.366,4.037-2.366,5.561c0,0.801,0.166,1.201,0.498,1.201
		c1.152,0,2.571-1.023,4.255-3.07c1.685-2.045,2.527-3.834,2.527-5.367c0-0.488-0.11-0.877-0.33-1.166
		C349.46,372.275,349.214,372.13,348.94,372.13z"/>
	<path fill="#575756" d="M361.201,384.304c-0.117,1.006-0.679,1.508-1.685,1.508c-1.279,0-1.919-0.922-1.919-2.768
		c0-2.988,0.161-5.543,0.483-7.662c0.254-1.65,0.381-3.271,0.381-4.863c0-0.381,0.122-0.699,0.366-0.959
		c0.244-0.258,0.586-0.389,1.025-0.389c1.465,0,2.197,0.889,2.197,2.666c0,0.576-0.259,2.047-0.776,4.41
		c-0.313,1.406-0.469,2.426-0.469,3.061c2.793-6.133,5.313-9.199,7.559-9.199c0.908,0,1.638,0.361,2.19,1.084
		s0.837,2.324,0.857,4.805c0.01,2.266,0.127,3.398,0.352,3.398c0.176,0,0.786-1.098,1.831-3.295c1.162-2.432,2.156-4.039,2.981-4.82
		s1.692-1.172,2.6-1.172c1.084,0,1.87,0.467,2.358,1.398c0.488,0.934,0.83,2.508,1.025,4.725c0.146,1.758,0.344,3.086,0.593,3.984
		s0.676,1.494,1.282,1.787c0.488,0.234,0.732,0.586,0.732,1.055c0,0.42-0.278,0.842-0.835,1.268
		c-0.557,0.424-1.123,0.637-1.699,0.637c-0.996,0-1.775-0.49-2.336-1.473c-0.562-0.98-0.94-2.951-1.135-5.91
		c-0.107-1.426-0.222-2.369-0.344-2.834c-0.122-0.463-0.305-0.695-0.549-0.695c-0.215,0-0.527,0.35-0.938,1.047
		c-0.41,0.699-1.118,2.088-2.124,4.168c-0.889,1.875-1.653,3.184-2.292,3.926s-1.326,1.113-2.058,1.113
		c-0.566,0-1.135-0.244-1.707-0.732s-0.881-2.262-0.93-5.318c-0.049-2.725-0.225-4.086-0.527-4.086c-0.41,0-1.396,1.211-2.959,3.633
		S361.992,382.39,361.201,384.304z"/>
	<path fill="#575756" d="M400.445,380.128c0,1.016-0.855,2.23-2.564,3.641s-3.637,2.117-5.785,2.117c-1.65,0-2.95-0.521-3.897-1.561
		c-0.947-1.041-1.421-2.488-1.421-4.344c0-2.734,0.967-5.297,2.9-7.689c1.933-2.393,4-3.59,6.197-3.59
		c1.094,0,1.973,0.348,2.637,1.041s0.996,1.518,0.996,2.475c0,1.699-0.816,3.318-2.447,4.855c-1.631,1.539-3.721,2.602-6.27,3.188
		c-0.293,0.068-0.439,0.244-0.439,0.527c0,0.469,0.208,0.914,0.623,1.34c0.415,0.424,0.969,0.637,1.662,0.637
		c1.963,0,3.912-1.01,5.846-3.031c0.371-0.391,0.732-0.586,1.084-0.586C400.152,379.148,400.445,379.474,400.445,380.128z
		 M390.615,377.537c1.543-0.313,2.903-0.973,4.08-1.979s1.766-1.918,1.766-2.738c0-0.322-0.091-0.594-0.271-0.814
		c-0.181-0.219-0.412-0.328-0.695-0.328c-0.85,0-1.793,0.625-2.828,1.875S390.947,376.13,390.615,377.537z"/>
	<path fill="#575756" d="M414.712,375.955c-0.098,0.156-0.84,1.699-2.227,4.629c-0.117,0.254-0.186,0.395-0.205,0.424
		c-1.66,3.35-2.939,5.025-3.838,5.025c-1.406,0-2.637-1.746-3.691-5.238c-1.055-3.49-1.582-6.398-1.582-8.723
		c0-0.84,0.197-1.518,0.593-2.035s0.96-0.777,1.692-0.777c0.459,0,0.866,0.197,1.223,0.594c0.356,0.395,0.535,0.773,0.535,1.135
		l-0.133,1.934c-0.039,0.586-0.059,1.172-0.059,1.758c0,1.035,0.215,2.41,0.645,4.123c0.43,1.715,0.732,2.572,0.908,2.572
		c0.127,0,0.621-0.869,1.48-2.607c1.123-2.275,2.031-3.994,2.725-5.156h-0.016c0.977-1.855,1.842-3.072,2.594-3.648
		c0.635,0.068,1.145,0.26,1.53,0.572s0.579,0.678,0.579,1.098c0,0.332-0.016,0.576-0.045,0.732
		c-0.039,0.166-0.059,0.318-0.059,0.455c0,2.949,0.816,5.6,2.447,7.953c0.107,0.107,0.202,0.045,0.285-0.189
		s0.285-0.957,0.607-2.168c0.596-2.246,1.27-4.201,2.021-5.867c0.752-1.664,1.367-2.697,1.846-3.098s1.021-0.602,1.627-0.602
		c0.381,0,0.71,0.145,0.988,0.432c0.278,0.289,0.418,0.604,0.418,0.945c0,0.41-0.088,0.732-0.264,0.967
		c-1.26,1.68-2.379,4.004-3.355,6.973c-1.006,3.076-1.703,4.957-2.094,5.641s-0.723,1.025-0.996,1.025
		c-0.908,0-1.653-0.17-2.234-0.506c-0.581-0.338-1.143-0.965-1.685-1.883s-1.032-2.074-1.472-3.471S414.8,376.57,414.712,375.955z"
		/>
	<path fill="#575756" d="M443.101,377.742c-0.654,2.285-1.897,4.211-3.729,5.777c-1.831,1.568-3.66,2.352-5.486,2.352
		c-1.445,0-2.637-0.529-3.574-1.59c-0.938-1.059-1.406-2.359-1.406-3.902c0-2.52,0.859-5,2.578-7.441s3.805-3.662,6.256-3.662
		c1.67,0,3.021,0.617,4.057,1.852c1.035,1.236,1.553,2.709,1.553,4.418c0,0.742-0.082,1.469-0.248,2.182V377.742z M435.484,373.113
		c-0.684,0.605-1.354,1.572-2.008,2.9s-0.98,2.66-0.98,3.998c0,0.811,0.148,1.48,0.446,2.008s0.69,0.791,1.179,0.791
		c1.211,0,2.471-0.719,3.779-2.154s1.963-3.047,1.963-4.834c0-1.006-0.212-1.832-0.637-2.482c-0.425-0.648-1.018-0.975-1.779-0.975
		c-0.723,0-1.373,0.25-1.949,0.748H435.484z"/>
	<path fill="#575756" d="M449.824,377.902l0.25-0.469c1.182-2.373,2.453-4.299,3.815-5.779c1.362-1.479,2.692-2.219,3.991-2.219
		c0.996,0,1.81,0.273,2.439,0.82s0.945,1.197,0.945,1.949c0,0.469-0.107,0.871-0.322,1.207c-0.215,0.338-0.514,0.506-0.895,0.506
		c-0.605,0-1.156-0.248-1.654-0.746c-0.352-0.322-0.631-0.484-0.836-0.484c-0.732,0-1.957,1.139-3.676,3.414
		s-2.754,4.834-3.105,7.676c-0.107,0.82-0.348,1.393-0.719,1.721c-0.371,0.326-0.873,0.49-1.508,0.49
		c-0.674,0-1.152-0.383-1.436-1.15c-0.283-0.766-0.426-2.018-0.426-3.756c0-0.713,0.02-1.676,0.059-2.887
		c0.039-1.143,0.152-2.539,0.338-4.189c0.049-0.43,0.082-0.766,0.102-1.01c0.088-0.957,0.188-1.613,0.301-1.971
		c0.112-0.355,0.373-0.691,0.783-1.004s0.865-0.469,1.363-0.469c0.527,0,0.928,0.152,1.201,0.455s0.41,0.635,0.41,0.996
		c0,0.459-0.221,1.41-0.66,2.855c-0.156,0.498-0.287,1.094-0.395,1.787L449.824,377.902z"/>
	<path fill="#575756" d="M475.416,372.937h0.014l-0.029,0.029c-0.566,0.313-1.025,0.586-1.377,0.82
		c-0.654,0.439-1.313,0.912-1.977,1.42c-0.762,0.586-1.334,1.08-1.715,1.48c-0.322,0.332-0.482,0.576-0.482,0.732
		c0,0.176,0.57,0.861,1.713,2.057c1.143,1.197,2.049,2.055,2.718,2.572s1.331,0.775,1.985,0.775l0.645-0.014
		c0.234,0,0.422,0.07,0.563,0.211c0.142,0.143,0.212,0.355,0.212,0.639c0,0.4-0.248,0.863-0.746,1.391s-1.354,0.791-2.564,0.791
		c-0.713,0-1.436-0.262-2.168-0.783s-1.855-1.701-3.369-3.537c-1.211-1.475-1.869-2.213-1.977-2.213
		c-0.068,0-0.273,0.176-0.615,0.527s-0.566,0.621-0.674,0.807v0.014c-0.166,0.811-0.25,1.871-0.25,3.18
		c0,0.654-0.192,1.186-0.578,1.596s-0.857,0.615-1.414,0.615c-0.576,0-1.025-0.164-1.348-0.49c-0.322-0.328-0.482-0.656-0.482-0.988
		c0-0.352,0.121-1.123,0.365-2.314c0.469-2.314,0.865-5.387,1.188-9.215c0.313-3.057,0.586-5.441,0.82-7.156
		c0.234-1.713,0.443-2.836,0.629-3.369c0.186-0.531,0.475-0.955,0.865-1.273c0.391-0.316,0.811-0.477,1.26-0.477
		c0.43,0,0.773,0.18,1.032,0.535c0.259,0.357,0.388,0.789,0.388,1.297c0,0.635-0.41,3.115-1.23,7.441l-0.352,1.918h0.016
		c-0.43,2.822-0.65,4.453-0.66,4.893l4.498-4.072c2.295-2.217,3.979-3.324,5.053-3.324c1.035,0,1.553,0.414,1.553,1.244
		C476.923,371.73,476.421,372.478,475.416,372.937z"/>
	<path fill="#575756" d="M495.513,377.712l-0.25,2.621c-0.078,0.84-0.117,1.67-0.117,2.49c0,0.742,0.068,1.602,0.205,2.578
		c-0.098,0.342-0.342,0.635-0.732,0.879s-0.801,0.367-1.23,0.367c-1.338,0-2.006-0.85-2.006-2.549c0-0.752,0.209-2.549,0.629-5.391
		c0.293-2.041,0.439-3.561,0.439-4.557c0-0.059-0.059-0.127-0.176-0.205c-0.674-0.43-1.01-0.84-1.01-1.23
		c0-0.508,0.375-1.059,1.127-1.654c0.361-0.283,0.584-0.613,0.667-0.99c0.083-0.375,0.202-0.969,0.358-1.779
		c0.527-3.115,1.346-5.328,2.454-6.643c1.108-1.313,2.517-1.971,4.226-1.971c0.996,0,1.839,0.326,2.527,0.975
		c0.688,0.65,1.033,1.453,1.033,2.41c0,0.859-0.198,1.75-0.594,2.672c-0.396,0.924-0.916,1.385-1.561,1.385
		c-0.283,0-0.521-0.09-0.717-0.271c-0.195-0.18-0.293-0.416-0.293-0.709l0.088-1.275c0-1.523-0.318-2.285-0.953-2.285
		c-0.791,0-1.53,0.994-2.219,2.98c-0.688,1.988-1.033,3.68-1.033,5.076c0,0.146,0.094,0.221,0.279,0.221
		c2.021,0,3.449-0.01,4.284-0.029s1.253,0.303,1.253,0.967c0,0.645-0.506,1.119-1.517,1.428c-1.011,0.307-2.073,0.461-3.187,0.461
		c-0.752,0.068-1.24,0.133-1.465,0.191c-0.234,1.445-0.404,2.719-0.512,3.822V377.712z"/>
	<path fill="#575756" d="M516.46,377.742c-0.654,2.285-1.897,4.211-3.729,5.777c-1.831,1.568-3.66,2.352-5.486,2.352
		c-1.445,0-2.637-0.529-3.574-1.59c-0.938-1.059-1.406-2.359-1.406-3.902c0-2.52,0.859-5,2.578-7.441s3.805-3.662,6.256-3.662
		c1.67,0,3.021,0.617,4.057,1.852c1.035,1.236,1.553,2.709,1.553,4.418c0,0.742-0.082,1.469-0.248,2.182V377.742z M508.843,373.113
		c-0.684,0.605-1.354,1.572-2.008,2.9s-0.98,2.66-0.98,3.998c0,0.811,0.148,1.48,0.446,2.008s0.69,0.791,1.179,0.791
		c1.211,0,2.471-0.719,3.779-2.154s1.963-3.047,1.963-4.834c0-1.006-0.212-1.832-0.637-2.482c-0.425-0.648-1.018-0.975-1.779-0.975
		c-0.723,0-1.373,0.25-1.949,0.748H508.843z"/>
	<path fill="#575756" d="M523.183,377.902l0.25-0.469c1.182-2.373,2.453-4.299,3.815-5.779c1.362-1.479,2.692-2.219,3.991-2.219
		c0.996,0,1.81,0.273,2.439,0.82s0.945,1.197,0.945,1.949c0,0.469-0.107,0.871-0.322,1.207c-0.215,0.338-0.514,0.506-0.895,0.506
		c-0.605,0-1.156-0.248-1.654-0.746c-0.352-0.322-0.631-0.484-0.836-0.484c-0.732,0-1.957,1.139-3.676,3.414
		s-2.754,4.834-3.105,7.676c-0.107,0.82-0.348,1.393-0.719,1.721c-0.371,0.326-0.873,0.49-1.508,0.49
		c-0.674,0-1.152-0.383-1.436-1.15c-0.283-0.766-0.426-2.018-0.426-3.756c0-0.713,0.02-1.676,0.059-2.887
		c0.039-1.143,0.152-2.539,0.338-4.189c0.049-0.43,0.082-0.766,0.102-1.01c0.088-0.957,0.188-1.613,0.301-1.971
		c0.112-0.355,0.373-0.691,0.783-1.004s0.865-0.469,1.363-0.469c0.527,0,0.928,0.152,1.201,0.455s0.41,0.635,0.41,0.996
		c0,0.459-0.221,1.41-0.66,2.855c-0.156,0.498-0.287,1.094-0.395,1.787L523.183,377.902z"/>
	<path fill="#575756" d="M547.779,375.441v0.016c0.313-1.777,0.469-2.793,0.469-3.047c0-0.723,0.158-1.328,0.476-1.816
		s0.759-0.732,1.325-0.732c0.664,0,1.182,0.156,1.553,0.469s0.557,0.664,0.557,1.055s-0.18,1.195-0.541,2.416l-0.088,0.322
		c-0.537,1.885-0.859,3.424-0.967,4.615s-0.162,2.152-0.162,2.885c0,0.596,0.104,1.393,0.309,2.389
		c0.029,0.176,0.043,0.322,0.043,0.439c0,0.225-0.212,0.527-0.637,0.908s-0.881,0.57-1.369,0.57c-1.289,0-1.934-0.977-1.934-2.93
		c0-1.66,0.234-3.682,0.703-6.064C547.613,376.408,547.701,375.91,547.779,375.441z M554.853,363.4c0,0.693-0.313,1.303-0.938,1.824
		c-0.625,0.523-1.166,0.783-1.625,0.783c-0.586,0-1.106-0.244-1.561-0.732s-0.682-0.977-0.682-1.465
		c0-0.703,0.225-1.271,0.674-1.707c0.449-0.434,1.094-0.65,1.934-0.65c0.654,0,1.185,0.193,1.59,0.578
		C554.651,362.417,554.853,362.873,554.853,363.4z"/>
	<path fill="#575756" d="M567.656,383.029c-0.469-0.879-0.811-2.52-1.025-4.922c-0.215-2.5-0.693-3.75-1.436-3.75
		c-0.703,0-1.918,1.303-3.646,3.904c-1.729,2.604-2.793,4.523-3.193,5.764c-0.088,0.371-0.252,0.68-0.491,0.924
		s-0.476,0.365-0.71,0.365c-1.484,0-2.227-0.678-2.227-2.035c0-0.459,0.146-1.504,0.439-3.135c0.381-2.109,0.57-4.688,0.57-7.734
		c0-0.459,0.201-0.949,0.602-1.473c0.4-0.521,0.824-0.783,1.273-0.783c0.566,0,1.002,0.141,1.305,0.424s0.453,1.035,0.453,2.256
		c0,0.928-0.277,2.725-0.834,5.391c2.119-4.961,4.482-7.441,7.09-7.441c2.266,0,3.594,1.783,3.984,5.348
		c0.391,3.633,0.84,5.449,1.348,5.449c0.225,0,0.482-0.049,0.775-0.146c0.352-0.117,0.631-0.176,0.836-0.176
		c0.469,0,0.703,0.273,0.703,0.82c0,0.498-0.322,1.027-0.967,1.588c-0.645,0.563-1.455,0.844-2.432,0.844
		c-1.133,0-1.943-0.494-2.432-1.48H567.656z"/>
	<path fill="#575756" d="M580.546,360.369c1.055,0,1.582,0.576,1.582,1.729c0,0.527-0.072,1.096-0.219,1.705
		c-0.146,0.611-0.547,2.123-1.201,4.535c-0.479,1.748-0.843,3.654-1.092,5.719c-0.249,2.066-0.373,3.68-0.373,4.842
		c0,1.24,0.092,2.715,0.277,4.424c0.049,0.459,0.074,0.748,0.074,0.865c0,0.586-0.215,1.088-0.645,1.508s-0.898,0.631-1.406,0.631
		c-0.693,0-1.182-0.328-1.465-0.982s-0.426-1.777-0.426-3.369c0-3.428,0.403-7.465,1.209-12.113s1.465-7.393,1.978-8.232
		S579.921,360.369,580.546,360.369z"/>
	<path fill="#575756" d="M584.751,375.441v0.016c0.313-1.777,0.469-2.793,0.469-3.047c0-0.723,0.158-1.328,0.476-1.816
		s0.759-0.732,1.325-0.732c0.664,0,1.182,0.156,1.553,0.469s0.557,0.664,0.557,1.055s-0.18,1.195-0.541,2.416l-0.088,0.322
		c-0.537,1.885-0.859,3.424-0.967,4.615s-0.162,2.152-0.162,2.885c0,0.596,0.104,1.393,0.309,2.389
		c0.029,0.176,0.043,0.322,0.043,0.439c0,0.225-0.212,0.527-0.637,0.908s-0.881,0.57-1.369,0.57c-1.289,0-1.934-0.977-1.934-2.93
		c0-1.66,0.234-3.682,0.703-6.064C584.585,376.408,584.673,375.91,584.751,375.441z M591.826,363.4c0,0.693-0.313,1.303-0.938,1.824
		c-0.625,0.523-1.166,0.783-1.625,0.783c-0.586,0-1.106-0.244-1.561-0.732s-0.682-0.977-0.682-1.465
		c0-0.703,0.225-1.271,0.674-1.707c0.449-0.434,1.094-0.65,1.934-0.65c0.654,0,1.185,0.193,1.59,0.578
		C591.624,362.417,591.826,362.873,591.826,363.4z"/>
	<path fill="#575756" d="M604.628,383.029c-0.469-0.879-0.811-2.52-1.025-4.922c-0.215-2.5-0.693-3.75-1.436-3.75
		c-0.703,0-1.918,1.303-3.646,3.904c-1.729,2.604-2.793,4.523-3.193,5.764c-0.088,0.371-0.252,0.68-0.491,0.924
		s-0.476,0.365-0.71,0.365c-1.484,0-2.227-0.678-2.227-2.035c0-0.459,0.146-1.504,0.439-3.135c0.381-2.109,0.57-4.688,0.57-7.734
		c0-0.459,0.201-0.949,0.602-1.473c0.4-0.521,0.824-0.783,1.273-0.783c0.566,0,1.002,0.141,1.305,0.424s0.453,1.035,0.453,2.256
		c0,0.928-0.277,2.725-0.834,5.391c2.119-4.961,4.482-7.441,7.09-7.441c2.266,0,3.594,1.783,3.984,5.348
		c0.391,3.633,0.84,5.449,1.348,5.449c0.225,0,0.482-0.049,0.775-0.146c0.352-0.117,0.631-0.176,0.836-0.176
		c0.469,0,0.703,0.273,0.703,0.82c0,0.498-0.322,1.027-0.967,1.588c-0.645,0.563-1.455,0.844-2.432,0.844
		c-1.133,0-1.943-0.494-2.432-1.48H604.628z"/>
	<path fill="#575756" d="M625.269,380.128c0,1.016-0.855,2.23-2.564,3.641s-3.637,2.117-5.785,2.117
		c-1.65,0-2.949-0.521-3.896-1.561c-0.947-1.041-1.422-2.488-1.422-4.344c0-2.734,0.967-5.297,2.9-7.689s4-3.59,6.197-3.59
		c1.094,0,1.973,0.348,2.637,1.041s0.996,1.518,0.996,2.475c0,1.699-0.816,3.318-2.447,4.855c-1.631,1.539-3.721,2.602-6.27,3.188
		c-0.293,0.068-0.439,0.244-0.439,0.527c0,0.469,0.207,0.914,0.623,1.34c0.414,0.424,0.969,0.637,1.662,0.637
		c1.963,0,3.912-1.01,5.846-3.031c0.371-0.391,0.732-0.586,1.084-0.586C624.976,379.148,625.269,379.474,625.269,380.128z
		 M615.439,377.537c1.543-0.313,2.902-0.973,4.08-1.979c1.176-1.006,1.766-1.918,1.766-2.738c0-0.322-0.092-0.594-0.271-0.814
		c-0.182-0.219-0.412-0.328-0.695-0.328c-0.85,0-1.793,0.625-2.828,1.875S615.771,376.13,615.439,377.537z"/>
	<path fill="#575756" d="M643.71,377.712l-0.248,2.621c-0.078,0.84-0.117,1.67-0.117,2.49c0,0.742,0.068,1.602,0.205,2.578
		c-0.098,0.342-0.342,0.635-0.732,0.879s-0.801,0.367-1.23,0.367c-1.338,0-2.008-0.85-2.008-2.549c0-0.752,0.211-2.549,0.631-5.391
		c0.293-2.041,0.439-3.561,0.439-4.557c0-0.059-0.059-0.127-0.176-0.205c-0.674-0.43-1.012-0.84-1.012-1.23
		c0-0.508,0.377-1.059,1.129-1.654c0.361-0.283,0.582-0.613,0.666-0.99c0.082-0.375,0.203-0.969,0.359-1.779
		c0.527-3.115,1.344-5.328,2.453-6.643c1.107-1.313,2.518-1.971,4.227-1.971c0.996,0,1.838,0.326,2.527,0.975
		c0.688,0.65,1.031,1.453,1.031,2.41c0,0.859-0.197,1.75-0.592,2.672c-0.396,0.924-0.916,1.385-1.561,1.385
		c-0.283,0-0.523-0.09-0.719-0.271c-0.195-0.18-0.293-0.416-0.293-0.709l0.088-1.275c0-1.523-0.316-2.285-0.951-2.285
		c-0.791,0-1.531,0.994-2.219,2.98c-0.689,1.988-1.033,3.68-1.033,5.076c0,0.146,0.092,0.221,0.277,0.221
		c2.021,0,3.451-0.01,4.285-0.029c0.836-0.02,1.252,0.303,1.252,0.967c0,0.645-0.504,1.119-1.516,1.428
		c-1.01,0.307-2.072,0.461-3.186,0.461c-0.752,0.068-1.24,0.133-1.465,0.191c-0.234,1.445-0.406,2.719-0.514,3.822V377.712z"/>
	<path fill="#575756" d="M661.128,379.806c-0.938,1.709-2.025,3.066-3.26,4.072c-1.236,1.006-2.488,1.51-3.758,1.51
		c-0.752,0-1.512-0.396-2.277-1.188c-0.768-0.791-1.15-2.006-1.15-3.646c0-1.162,0.293-2.916,0.879-5.26
		c0.508-1.934,0.762-3.402,0.762-4.408c0.391-0.82,1.002-1.23,1.832-1.23c0.566,0,1.018,0.188,1.355,0.563
		c0.336,0.377,0.504,0.756,0.504,1.137c0,0.693-0.244,1.68-0.732,2.959c-0.283,0.762-0.588,1.838-0.914,3.229
		c-0.328,1.393-0.492,2.283-0.492,2.674c0,1.299,0.27,1.949,0.807,1.949c0.85,0,1.996-0.816,3.441-2.447s2.389-3.301,2.828-5.01
		c0.439-1.67,0.83-2.764,1.172-3.281s0.824-0.775,1.449-0.775c1.016,0,1.523,0.566,1.523,1.699c0,0.166-0.082,0.498-0.248,0.996
		c-0.576,1.729-0.865,3.676-0.865,5.844c0,2.539,0.43,4.059,1.289,4.557c0.283,0.166,0.426,0.371,0.426,0.615
		c0,0.352-0.25,0.684-0.748,0.996s-0.971,0.469-1.42,0.469c-0.771,0-1.365-0.545-1.779-1.635
		C661.335,383.105,661.128,381.642,661.128,379.806z"/>
	<path fill="#575756" d="M681.357,383.029c-0.469-0.879-0.811-2.52-1.025-4.922c-0.215-2.5-0.693-3.75-1.436-3.75
		c-0.703,0-1.918,1.303-3.646,3.904c-1.729,2.604-2.793,4.523-3.193,5.764c-0.088,0.371-0.252,0.68-0.49,0.924
		c-0.24,0.244-0.477,0.365-0.711,0.365c-1.484,0-2.227-0.678-2.227-2.035c0-0.459,0.146-1.504,0.439-3.135
		c0.381-2.109,0.57-4.688,0.57-7.734c0-0.459,0.201-0.949,0.602-1.473c0.4-0.521,0.824-0.783,1.273-0.783
		c0.566,0,1.002,0.141,1.305,0.424s0.453,1.035,0.453,2.256c0,0.928-0.277,2.725-0.834,5.391c2.119-4.961,4.482-7.441,7.09-7.441
		c2.266,0,3.594,1.783,3.984,5.348c0.391,3.633,0.84,5.449,1.348,5.449c0.225,0,0.482-0.049,0.775-0.146
		c0.352-0.117,0.631-0.176,0.836-0.176c0.469,0,0.703,0.273,0.703,0.82c0,0.498-0.322,1.027-0.967,1.588
		c-0.645,0.563-1.455,0.844-2.432,0.844c-1.133,0-1.943-0.494-2.432-1.48H681.357z"/>
	<path fill="#575756" d="M693.208,385.974c-1.611,0-2.838-0.439-3.678-1.318s-1.26-2.1-1.26-3.662c0-2.461,1.002-5.123,3.004-7.984
		s3.965-4.291,5.889-4.291c0.928,0,1.719,0.461,2.373,1.383c0.654,0.924,0.98,1.883,0.98,2.879c0,0.938-0.174,1.57-0.52,1.896
		c-0.348,0.328-0.682,0.492-1.004,0.492c-0.947,0-1.498-0.654-1.654-1.963c-0.117-0.957-0.357-1.436-0.719-1.436
		c-0.762,0-1.768,1.084-3.018,3.252s-1.875,4.066-1.875,5.697c0,1.318,0.713,1.979,2.139,1.979c1.572,0,3.16-0.557,4.762-1.67
		c0.752-0.537,1.348-0.807,1.787-0.807c0.537,0,0.805,0.27,0.805,0.807c0,0.752-0.861,1.73-2.584,2.936
		C696.912,385.371,695.103,385.974,693.208,385.974z"/>
	<path fill="#575756" d="M710.009,373.273c-0.088,0-0.363,1.09-0.826,3.268c-0.465,2.178-0.697,3.496-0.697,3.955
		c0,0.801,0.086,1.359,0.258,1.676c0.17,0.318,0.451,0.477,0.842,0.477c0.547,0,1.07-0.096,1.574-0.285
		c0.502-0.191,1.164-0.617,1.984-1.281c0.508-0.42,0.938-0.631,1.289-0.631c0.283,0,0.51,0.08,0.682,0.242
		c0.17,0.16,0.256,0.35,0.256,0.564c0,0.859-0.693,1.834-2.08,2.922s-2.852,1.633-4.395,1.633c-1.289,0-2.273-0.381-2.951-1.143
		c-0.68-0.762-1.018-1.855-1.018-3.281c0-1.318,0.492-3.949,1.479-7.895c-0.625,0.068-1.059,0.102-1.303,0.102h-0.309
		c-0.449,0-0.906-0.146-1.369-0.439c-0.465-0.293-0.695-0.762-0.695-1.406c0-0.82,0.463-1.23,1.391-1.23l3.135-0.117
		c0.41-1.182,0.846-2.729,1.305-4.643c0.273-1.191,0.893-1.787,1.859-1.787c0.537,0,0.957,0.164,1.26,0.49
		c0.303,0.328,0.455,0.691,0.455,1.092c0,0.156-0.416,1.664-1.246,4.525c3.105-0.273,4.811-0.41,5.113-0.41
		c0.518,0,0.859,0.076,1.025,0.227c0.166,0.152,0.248,0.443,0.248,0.873c0,0.869-0.736,1.42-2.211,1.654L710.009,373.273z"/>
	<path fill="#575756" d="M719.078,375.441v0.016c0.313-1.777,0.469-2.793,0.469-3.047c0-0.723,0.158-1.328,0.477-1.816
		c0.316-0.488,0.758-0.732,1.324-0.732c0.664,0,1.182,0.156,1.553,0.469s0.557,0.664,0.557,1.055s-0.18,1.195-0.541,2.416
		l-0.088,0.322c-0.537,1.885-0.859,3.424-0.967,4.615s-0.162,2.152-0.162,2.885c0,0.596,0.104,1.393,0.309,2.389
		c0.029,0.176,0.043,0.322,0.043,0.439c0,0.225-0.211,0.527-0.637,0.908c-0.424,0.381-0.881,0.57-1.369,0.57
		c-1.289,0-1.934-0.977-1.934-2.93c0-1.66,0.234-3.682,0.703-6.064C718.912,376.408,719,375.91,719.078,375.441z M726.152,363.4
		c0,0.693-0.313,1.303-0.938,1.824c-0.625,0.523-1.166,0.783-1.625,0.783c-0.586,0-1.105-0.244-1.561-0.732
		c-0.453-0.488-0.682-0.977-0.682-1.465c0-0.703,0.225-1.271,0.674-1.707c0.449-0.434,1.094-0.65,1.934-0.65
		c0.654,0,1.184,0.193,1.59,0.578C725.949,362.417,726.152,362.873,726.152,363.4z"/>
	<path fill="#575756" d="M740.494,377.742c-0.654,2.285-1.896,4.211-3.729,5.777c-1.83,1.568-3.66,2.352-5.486,2.352
		c-1.445,0-2.637-0.529-3.574-1.59c-0.938-1.059-1.406-2.359-1.406-3.902c0-2.52,0.859-5,2.578-7.441s3.805-3.662,6.256-3.662
		c1.67,0,3.021,0.617,4.057,1.852c1.035,1.236,1.553,2.709,1.553,4.418c0,0.742-0.082,1.469-0.248,2.182V377.742z M732.876,373.113
		c-0.684,0.605-1.354,1.572-2.008,2.9s-0.98,2.66-0.98,3.998c0,0.811,0.148,1.48,0.447,2.008c0.297,0.527,0.689,0.791,1.178,0.791
		c1.211,0,2.471-0.719,3.779-2.154s1.963-3.047,1.963-4.834c0-1.006-0.211-1.832-0.637-2.482c-0.424-0.648-1.018-0.975-1.779-0.975
		c-0.723,0-1.373,0.25-1.949,0.748H732.876z"/>
	<path fill="#575756" d="M755.859,383.029c-0.469-0.879-0.811-2.52-1.025-4.922c-0.215-2.5-0.693-3.75-1.436-3.75
		c-0.703,0-1.918,1.303-3.646,3.904c-1.729,2.604-2.793,4.523-3.193,5.764c-0.088,0.371-0.252,0.68-0.49,0.924
		c-0.24,0.244-0.477,0.365-0.711,0.365c-1.484,0-2.227-0.678-2.227-2.035c0-0.459,0.146-1.504,0.439-3.135
		c0.381-2.109,0.57-4.688,0.57-7.734c0-0.459,0.201-0.949,0.602-1.473c0.4-0.521,0.824-0.783,1.273-0.783
		c0.566,0,1.002,0.141,1.305,0.424s0.453,1.035,0.453,2.256c0,0.928-0.277,2.725-0.834,5.391c2.119-4.961,4.482-7.441,7.09-7.441
		c2.266,0,3.594,1.783,3.984,5.348c0.391,3.633,0.84,5.449,1.348,5.449c0.225,0,0.482-0.049,0.775-0.146
		c0.352-0.117,0.631-0.176,0.836-0.176c0.469,0,0.703,0.273,0.703,0.82c0,0.498-0.322,1.027-0.967,1.588
		c-0.645,0.563-1.455,0.844-2.432,0.844c-1.133,0-1.943-0.494-2.432-1.48H755.859z"/>
	<path fill="#575756" d="M770.289,381.447c-0.039-0.527-0.879-1.172-2.52-1.934c-2.012-0.967-3.297-1.799-3.854-2.498
		c-0.557-0.697-0.834-1.457-0.834-2.277c0-1.729,0.969-3.238,2.908-4.533c1.938-1.293,3.746-1.941,5.426-1.941
		c1.65,0,2.477,0.719,2.477,2.154c0,0.381-0.189,0.723-0.564,1.025c-0.377,0.303-0.695,0.453-0.959,0.453
		c-0.107,0-0.299-0.068-0.572-0.205s-0.482-0.205-0.629-0.205c-0.869,0-1.826,0.293-2.871,0.879s-1.568,1.27-1.568,2.051
		c0,0.381,0.186,0.75,0.557,1.105c0.371,0.357,1.129,0.805,2.271,1.342c1.689,0.801,2.803,1.523,3.34,2.168s0.805,1.357,0.805,2.139
		c0,1.426-0.965,2.613-2.893,3.566c-1.93,0.951-4.094,1.428-6.496,1.428c-1.768,0-2.652-0.639-2.652-1.918
		c0-0.469,0.186-0.869,0.557-1.201s0.787-0.498,1.246-0.498c0.186,0,0.473,0.068,0.863,0.205c0.391,0.146,0.752,0.219,1.084,0.219
		c0.918,0,1.881-0.146,2.887-0.439S769.966,381.876,770.289,381.447z"/>
</g>
</svg>
