<?xml version="1.0" encoding="utf-8"?>
<!-- Generator: Adobe Illustrator 22.1.0, SVG Export Plug-In . SVG Version: 6.00 Build 0)  -->
<svg version="1.1" id="Capa_1" xmlns="http://www.w3.org/2000/svg" xmlns:xlink="http://www.w3.org/1999/xlink" x="0px" y="0px"
	 viewBox="0 0 774.4 400" style="enable-background:new 0 0 774.4 400;" xml:space="preserve">
<style type="text/css">
	.st0{fill:#010202;}
	.st1{fill:none;}
	.st2{enable-background:new    ;}
	.st3{fill:#575756;}
</style>
<g transform="translate(12.113813,9.9321205)">
	<path class="st0" d="M384.2,156.9c9.9,4.2,20.3,7.4,30.4,11.1c7.5,2.7,4,15.6-3.7,15.7c-2.4,0-7.4-0.7-9.9-0.7
		c2.7,1.5,7.9,3.7,10.5,5.2c6.4,3.6,3,15.1-4.4,14.4c-3.1-0.3-8.7-1.4-11.8-1.7c2.1,1.3,6.8,3.3,8.9,4.6c6.5,3.9,2.7,16.7-4.8,15.6
		c-2.6-0.4-7.8-1.5-10.4-1.9c1.1,0.7,4.8,2.2,6,3c6.9,4.5,3.1,14.4-4.5,13.1c-15.2-2.7-29.3-5.2-44.1-9.6
		c-15-4.4-20.4-22.8-42.7-29.4c3.9-13.5,7.8-27,11.7-40.4c19.9,5.9,29.2-6.5,40.3-9.2C369,143.4,373.8,152.5,384.2,156.9
		L384.2,156.9z"/>
	<path class="st0" d="M376.6,240c-0.8,2.6-1.6,5.3-2.3,7.9c-0.9,3.1-4.3,5-7.4,4c-5.9-1.8-11.9-3.5-17.8-5.3c-3.1-0.9-5-4.3-4-7.4
		c0.7-2.2,1.1-3.8,1.8-6C353.1,235.1,365.3,238.2,376.6,240z"/>
	<path class="st0" d="M395.9,88.3c5.9,1.8,11.9,3.5,17.8,5.3c3.2,0.9,5,4.3,4,7.4c-5.4,18.3-10.6,35.9-16,54.2
		c-6.3-2.2-6.8-1.6-15.9-5.8c-5.5-2.5-8.4-4.3-12.1-7.3c5.1-17.2,9.6-32.5,14.7-49.8C389.4,89.1,392.8,87.3,395.9,88.3L395.9,88.3z"
		/>
	<path class="st0" d="M352,111.4c14.2-1.7,17.1-13.5,20.4-19.7c9.1,2.7,67.1,20.6,74,22.6c-2.5,8.5-7.5,25.4-10,33.9
		c-9.3-2.7-70.6-20.9-81.8-24.3c-3.2-0.9-5-4.3-4-7.4C351.8,112.2,350.7,115.6,352,111.4z"/>
</g>
<rect x="273.9" y="50.4" class="st1" width="226.6" height="24.5"/>
<g class="st2">
	<path d="M308.4,50.4l-2.7,23.1h-7.5c-0.7-3.6-1.3-7.6-1.8-12.1c-0.2,1.9-0.8,6-1.7,12.1h-7.5l-2.7-23.1h5.8l0.6,8.1l0.6,7.8
		c0.2-4,0.8-9.3,1.7-15.9h6.2c0.1,0.7,0.3,3.2,0.7,7.6l0.7,8.8c0.3-5.6,0.9-11.1,1.7-16.4H308.4z"/>
	<path d="M309.6,50.4h10V55h-4v4.4h3.8v4.4h-3.8v5.1h4.4v4.6h-10.4V50.4z"/>
	<path d="M321.8,50.4h6c1.9,0,3.3,0.1,4.3,0.4c1,0.3,1.8,0.9,2.4,1.8c0.6,0.9,0.9,2.4,0.9,4.4c0,1.4-0.2,2.3-0.6,2.8
		c-0.4,0.5-1.3,0.9-2.5,1.2c1.4,0.3,2.3,0.8,2.8,1.6c0.5,0.7,0.7,1.8,0.7,3.4v2.1c0,1.6-0.2,2.7-0.5,3.5c-0.4,0.8-0.9,1.3-1.7,1.5
		c-0.8,0.3-2.4,0.4-4.8,0.4h-7V50.4z M327.8,54.3v5.1c0.3,0,0.5,0,0.6,0c0.6,0,1-0.1,1.1-0.4c0.2-0.3,0.2-1.1,0.2-2.5
		c0-0.7-0.1-1.2-0.2-1.5c-0.1-0.3-0.3-0.5-0.5-0.6C328.9,54.4,328.4,54.3,327.8,54.3z M327.8,63.1v6.5c0.8,0,1.4-0.2,1.6-0.4
		s0.4-0.8,0.4-1.8v-2.2c0-1-0.1-1.6-0.3-1.8C329.3,63.2,328.7,63.1,327.8,63.1z"/>
	<path d="M338,50.4h6.1c1.6,0,2.9,0.1,3.8,0.4c0.9,0.3,1.5,0.6,2,1.1c0.4,0.5,0.7,1.1,0.9,1.8c0.2,0.7,0.2,1.8,0.2,3.2v2
		c0,1.5-0.2,2.6-0.5,3.2c-0.3,0.7-0.9,1.2-1.7,1.6c-0.8,0.4-1.9,0.5-3.2,0.5H344v9.3h-6V50.4z M344,54.3v5.9c0.2,0,0.3,0,0.4,0
		c0.6,0,0.9-0.1,1.2-0.4c0.2-0.3,0.3-0.8,0.3-1.7v-1.9c0-0.8-0.1-1.3-0.4-1.5C345.3,54.4,344.8,54.3,344,54.3z"/>
	<path d="M352.7,50.4h4.3c2.8,0,4.8,0.1,5.8,0.3c1,0.2,1.8,0.8,2.5,1.7c0.6,0.9,1,2.3,1,4.3c0,1.8-0.2,3-0.7,3.6
		c-0.4,0.6-1.3,1-2.6,1.1c1.2,0.3,2,0.7,2.4,1.2c0.4,0.5,0.7,1,0.8,1.4c0.1,0.4,0.2,1.6,0.2,3.4v6.1h-5.6v-7.7c0-1.2-0.1-2-0.3-2.3
		c-0.2-0.3-0.7-0.4-1.5-0.4v10.4h-6V50.4z M358.7,54.3v5.1c0.7,0,1.2-0.1,1.4-0.3s0.4-0.8,0.4-1.8v-1.3c0-0.7-0.1-1.2-0.4-1.4
		C359.9,54.4,359.4,54.3,358.7,54.3z"/>
	<path d="M382.2,63.9c0,2.3-0.1,4-0.2,4.9c-0.1,1-0.5,1.9-1,2.7c-0.6,0.8-1.4,1.4-2.3,1.8s-2.1,0.6-3.4,0.6c-1.2,0-2.4-0.2-3.3-0.6
		c-1-0.4-1.8-1-2.4-1.8c-0.6-0.8-1-1.7-1.1-2.6s-0.2-2.6-0.2-5v-4c0-2.3,0.1-4,0.2-4.9c0.1-1,0.5-1.9,1-2.7c0.6-0.8,1.4-1.4,2.3-1.8
		s2.1-0.6,3.4-0.6c1.2,0,2.4,0.2,3.3,0.6s1.8,1,2.4,1.8c0.6,0.8,1,1.7,1.1,2.6c0.1,1,0.2,2.6,0.2,5V63.9z M376.2,56.3
		c0-1.1-0.1-1.8-0.2-2.1c-0.1-0.3-0.4-0.5-0.7-0.5c-0.3,0-0.6,0.1-0.7,0.4s-0.2,1-0.2,2.2v10.8c0,1.3,0.1,2.2,0.2,2.5
		s0.4,0.5,0.8,0.5c0.4,0,0.7-0.2,0.8-0.5c0.1-0.4,0.2-1.2,0.2-2.6V56.3z"/>
	<path d="M390.4,50.4v18.5h3.7v4.6h-9.7V50.4H390.4z"/>
	<path d="M395.6,50.4h10V55h-4v4.4h3.8v4.4h-3.8v5.1h4.4v4.6h-10.4V50.4z"/>
	<path d="M419.5,50.4V55h-3.6v18.5h-6V55h-3.6v-4.6H419.5z"/>
	<path d="M430.1,50.4l3.4,23.1h-6.2l-0.3-4.2h-2.2l-0.4,4.2h-6.2l3.1-23.1H430.1z M426.9,65.2c-0.3-2.6-0.6-5.9-0.9-9.7
		c-0.6,4.4-1,7.7-1.2,9.7H426.9z"/>
	<path d="M434.5,50.4h4.3c2.8,0,4.8,0.1,5.8,0.3c1,0.2,1.8,0.8,2.5,1.7c0.6,0.9,1,2.3,1,4.3c0,1.8-0.2,3-0.7,3.6
		c-0.4,0.6-1.3,1-2.6,1.1c1.2,0.3,2,0.7,2.4,1.2c0.4,0.5,0.7,1,0.8,1.4c0.1,0.4,0.2,1.6,0.2,3.4v6.1h-5.6v-7.7c0-1.2-0.1-2-0.3-2.3
		c-0.2-0.3-0.7-0.4-1.5-0.4v10.4h-6V50.4z M440.6,54.3v5.1c0.7,0,1.2-0.1,1.4-0.3s0.4-0.8,0.4-1.8v-1.3c0-0.7-0.1-1.2-0.4-1.4
		C441.7,54.4,441.2,54.3,440.6,54.3z"/>
	<path d="M456.3,50.4v23.1h-6V50.4H456.3z"/>
	<path d="M469.1,50.4l3.4,23.1h-6.2l-0.3-4.2H464l-0.4,4.2h-6.2l3.1-23.1H469.1z M466,65.2c-0.3-2.6-0.6-5.9-0.9-9.7
		c-0.6,4.4-1,7.7-1.2,9.7H466z"/>
	<path d="M487,50.4v23.1h-5.3L478.6,63v10.5h-5V50.4h5l3.4,10.4V50.4H487z"/>
</g>
<g>
	<path class="st0" d="M254.1,0l24.2,279.6l108.7,31l109-31L520.3,0H254.1z M475.3,262.4L387,287.5l-87.9-25.1L278.3,22.2h217.8
		L475.3,262.4z"/>
</g>
<g>
	<path class="st3" d="M15.5,369.4c0-1-0.2-1.6-0.7-2c-0.5-0.4-1.2-0.6-2.2-0.6c-1.6,0-3.2,0.4-4.6,1.2c-1.4,0.8-2.1,1.7-2.1,2.7
		c0,0.6,0.3,1.1,0.8,1.6c0.5,0.4,1.9,1,4.1,1.6c2.3,0.7,4.1,1.4,5.2,2.2c1.1,0.8,1.7,1.8,1.7,2.9c0,1.9-1.4,3.6-4.3,5.2
		c-2.9,1.6-5.9,2.4-8.9,2.4c-1,0-1.8-0.2-2.4-0.6s-0.9-0.9-0.9-1.6c0-0.5,0.1-0.9,0.4-1.4s0.6-0.6,1-0.6c0.2,0,0.4,0,0.6,0.1
		c1,0.4,2,0.7,2.9,0.7c1.5,0,3.2-0.4,5.1-1.3c1.9-0.9,2.8-1.7,2.8-2.5c0-0.3-0.2-0.7-0.7-1c-0.5-0.3-1.4-0.7-2.9-1.2
		c-2.1-0.7-3.7-1.3-4.8-1.7s-1.9-1-2.4-1.8c-0.6-0.7-0.8-1.6-0.8-2.6c0-1.8,1.1-3.5,3.2-5.1s4.6-2.4,7.5-2.4c1.6,0,3,0.3,3.9,1
		s1.4,1.4,1.4,2.2C18.3,368.6,17.4,369.4,15.5,369.4z"/>
	<path class="st3" d="M21.8,375.4L21.8,375.4c0.3-1.8,0.5-2.8,0.5-3c0-0.7,0.2-1.3,0.5-1.8s0.8-0.7,1.3-0.7c0.7,0,1.2,0.2,1.6,0.5
		s0.6,0.7,0.6,1.1s-0.2,1.2-0.5,2.4l-0.1,0.3c-0.5,1.9-0.9,3.4-1,4.6s-0.2,2.2-0.2,2.9c0,0.6,0.1,1.4,0.3,2.4c0,0.2,0,0.3,0,0.4
		c0,0.2-0.2,0.5-0.6,0.9s-0.9,0.6-1.4,0.6c-1.3,0-1.9-1-1.9-2.9c0-1.7,0.2-3.7,0.7-6.1C21.6,376.4,21.7,375.9,21.8,375.4z
		 M28.9,363.4c0,0.7-0.3,1.3-0.9,1.8c-0.6,0.5-1.2,0.8-1.6,0.8c-0.6,0-1.1-0.2-1.6-0.7s-0.7-1-0.7-1.5c0-0.7,0.2-1.3,0.7-1.7
		c0.4-0.4,1.1-0.6,1.9-0.6c0.7,0,1.2,0.2,1.6,0.6C28.7,362.4,28.9,362.9,28.9,363.4z"/>
	<path class="st3" d="M33.2,384.3c-0.1,1-0.7,1.5-1.7,1.5c-1.3,0-1.9-0.9-1.9-2.8c0-3,0.2-5.5,0.5-7.7c0.3-1.6,0.4-3.3,0.4-4.9
		c0-0.4,0.1-0.7,0.4-1c0.2-0.3,0.6-0.4,1-0.4c1.5,0,2.2,0.9,2.2,2.7c0,0.6-0.3,2-0.8,4.4c-0.3,1.4-0.5,2.4-0.5,3.1
		c2.8-6.1,5.3-9.2,7.6-9.2c0.9,0,1.6,0.4,2.2,1.1s0.8,2.3,0.9,4.8c0,2.3,0.1,3.4,0.4,3.4c0.2,0,0.8-1.1,1.8-3.3c1.2-2.4,2.2-4,3-4.8
		s1.7-1.2,2.6-1.2c1.1,0,1.9,0.5,2.4,1.4c0.5,0.9,0.8,2.5,1,4.7c0.1,1.8,0.3,3.1,0.6,4s0.7,1.5,1.3,1.8c0.5,0.2,0.7,0.6,0.7,1.1
		c0,0.4-0.3,0.8-0.8,1.3c-0.6,0.4-1.1,0.6-1.7,0.6c-1,0-1.8-0.5-2.3-1.5c-0.6-1-0.9-3-1.1-5.9c-0.1-1.4-0.2-2.4-0.3-2.8
		c-0.1-0.5-0.3-0.7-0.5-0.7c-0.2,0-0.5,0.4-0.9,1c-0.4,0.7-1.1,2.1-2.1,4.2c-0.9,1.9-1.7,3.2-2.3,3.9s-1.3,1.1-2.1,1.1
		c-0.6,0-1.1-0.2-1.7-0.7s-0.9-2.3-0.9-5.3c0-2.7-0.2-4.1-0.5-4.1c-0.4,0-1.4,1.2-3,3.6S34,382.4,33.2,384.3z"/>
	<path class="st3" d="M62.8,384.1c-0.2,0.7-0.3,1.7-0.5,3.1l-0.7,5.8c-0.1,0.9-0.3,1.6-0.7,1.9s-0.8,0.5-1.2,0.5
		c-0.4,0-0.9-0.2-1.3-0.5c-0.4-0.3-0.6-0.7-0.6-1.1c0-0.8,0.1-1.7,0.4-2.7c1.5-5.8,2.3-11.8,2.4-18.1v-0.3c0-1.3,0-2.2,0.1-2.6
		c0.1-0.4,0.3-0.8,0.6-1.1s0.8-0.5,1.5-0.5c1.1,0,1.6,0.8,1.6,2.4c0,0.7-0.1,1.8-0.4,3.4l-0.1,1c1.1-1.9,2.4-3.4,4-4.6
		c1.5-1.2,2.9-1.8,4.1-1.8c1.1,0,2,0.4,2.8,1.2s1.2,1.8,1.2,2.9c0,3.2-1.2,6-3.7,8.6c-2.4,2.6-4.9,3.9-7.3,3.9
		C63.8,385.5,63.1,385,62.8,384.1z M71.4,372.2c-1.2,0-2.7,1.2-4.6,3.5s-2.8,4.1-2.8,5.5c0,0.3,0.2,0.6,0.5,0.9
		c0.3,0.3,0.7,0.4,1.2,0.4c1.2,0,2.7-1,4.3-2.9c1.6-1.9,2.4-3.8,2.4-5.6c0-0.6-0.1-1-0.3-1.3C71.8,372.4,71.6,372.2,71.4,372.2z"/>
	<path class="st3" d="M84.1,360.4c1.1,0,1.6,0.6,1.6,1.7c0,0.5-0.1,1.1-0.2,1.7c-0.1,0.6-0.5,2.1-1.2,4.5c-0.5,1.7-0.8,3.7-1.1,5.7
		c-0.2,2.1-0.4,3.7-0.4,4.8c0,1.2,0.1,2.7,0.3,4.4c0,0.5,0.1,0.7,0.1,0.9c0,0.6-0.2,1.1-0.6,1.5s-0.9,0.6-1.4,0.6
		c-0.7,0-1.2-0.3-1.5-1s-0.4-1.8-0.4-3.4c0-3.4,0.4-7.5,1.2-12.1s1.5-7.4,2-8.2S83.4,360.4,84.1,360.4z"/>
	<path class="st3" d="M100.3,380.1c0,1-0.9,2.2-2.6,3.6s-3.6,2.1-5.8,2.1c-1.7,0-2.9-0.5-3.9-1.6c-0.9-1-1.4-2.5-1.4-4.3
		c0-2.7,1-5.3,2.9-7.7s4-3.6,6.2-3.6c1.1,0,2,0.3,2.6,1s1,1.5,1,2.5c0,1.7-0.8,3.3-2.4,4.9c-1.6,1.5-3.7,2.6-6.3,3.2
		c-0.3,0.1-0.4,0.2-0.4,0.5c0,0.5,0.2,0.9,0.6,1.3c0.4,0.4,1,0.6,1.7,0.6c2,0,3.9-1,5.8-3c0.4-0.4,0.7-0.6,1.1-0.6
		C100,379.1,100.3,379.5,100.3,380.1z M90.5,377.5c1.5-0.3,2.9-1,4.1-2s1.8-1.9,1.8-2.7c0-0.3-0.1-0.6-0.3-0.8
		c-0.2-0.2-0.4-0.3-0.7-0.3c-0.8,0-1.8,0.6-2.8,1.9S90.8,376.1,90.5,377.5z"/>
	<path class="st3" d="M136.5,384.6c-0.1,0.2-0.4,0.4-0.8,0.6s-0.7,0.3-0.9,0.3c-0.7,0-1.2-0.3-1.8-1s-1.3-2.4-2.4-5.1
		c-1-2.7-1.6-4.3-1.7-4.8l-3.6,6.5c-2,3.6-3.3,5.4-4,5.4c-0.5,0-0.9-0.1-1.2-0.3c-0.3-0.2-0.7-0.7-1-1.4s-0.7-2.2-1.3-4.5
		c-0.5-2.3-1-4.7-1.4-7.1c-0.4-2.4-0.7-3.8-0.8-4.4c-0.1-0.4-0.2-0.7-0.2-0.9c-0.3-0.8-0.4-1.3-0.4-1.7c0-0.4,0.2-0.8,0.6-1.3
		c0.4-0.4,0.8-0.6,1.3-0.6c0.9,0,1.6,0.7,1.9,2.2c0.4,1.5,0.6,2.5,0.6,3.1l0.4,2.5c0.1,0.8,0.3,1.7,0.5,2.7c0.2,1,0.4,1.8,0.5,2.5
		c0.4,2.4,0.6,3.7,0.8,3.9c1.8-2.9,3-4.9,3.6-6c0.6-1.1,1.5-2.8,2.6-5.3c0.1-0.2,0.4-0.5,0.7-0.7c0.3-0.2,0.6-0.3,0.9-0.3
		c0.4,0,0.8,0.2,1.1,0.6s0.8,1.5,1.4,3.3c0,0.1,0.1,0.2,0.1,0.4l1.2,3.1c1.1,2.8,1.6,4.2,1.7,4.3c2.8-5.3,4.5-10.7,5-16.2
		c0-0.4,0.2-0.7,0.5-0.9c0.3-0.2,0.7-0.3,1.2-0.3c0.6,0,1,0.2,1.3,0.6c0.3,0.4,0.4,0.8,0.4,1.3c0,1-0.3,2.5-0.8,4.6
		c-0.5,2.1-1.3,4.3-2.3,6.8l-0.4,1c-0.1,0.3-0.9,1.9-2.4,5C137,383.6,136.7,384.2,136.5,384.6z"/>
	<path class="st3" d="M157.6,380.1c0,1-0.9,2.2-2.6,3.6s-3.6,2.1-5.8,2.1c-1.6,0-2.9-0.5-3.9-1.6c-0.9-1-1.4-2.5-1.4-4.3
		c0-2.7,1-5.3,2.9-7.7s4-3.6,6.2-3.6c1.1,0,2,0.3,2.6,1s1,1.5,1,2.5c0,1.7-0.8,3.3-2.4,4.9c-1.6,1.5-3.7,2.6-6.3,3.2
		c-0.3,0.1-0.4,0.2-0.4,0.5c0,0.5,0.2,0.9,0.6,1.3c0.4,0.4,1,0.6,1.7,0.6c2,0,3.9-1,5.8-3c0.4-0.4,0.7-0.6,1.1-0.6
		C157.3,379.1,157.6,379.5,157.6,380.1z M147.8,377.5c1.5-0.3,2.9-1,4.1-2s1.8-1.9,1.8-2.7c0-0.3-0.1-0.6-0.3-0.8
		c-0.2-0.2-0.4-0.3-0.7-0.3c-0.9,0-1.8,0.6-2.8,1.9S148.1,376.1,147.8,377.5z"/>
	<path class="st3" d="M161.5,370.9c0.9-5.6,1.6-8.9,2-10s1.1-1.6,2.2-1.6c0.8,0,1.2,0.7,1.2,2.1c0,1-0.4,3-1.2,6
		c-0.4,1.5-0.9,3.8-1.5,6.8c1.2-1.6,2.5-2.9,4-3.9s2.7-1.5,3.8-1.5c0.9,0,1.7,0.4,2.3,1.2c0.6,0.8,0.9,1.7,0.9,2.8
		c0,3-1.2,5.8-3.5,8.5s-4.8,4-7.4,4c-0.8,0-1.5-0.2-2.2-0.6c-0.7-0.4-1.1-1-1.1-1.6c0-0.4-0.1-0.6-0.2-0.7s-0.2-0.2-0.3-0.4
		c-0.3-0.3-0.4-0.7-0.4-1.2c0-0.6,0.2-1.9,0.5-3.8L161.5,370.9z M163.2,381.3c0.4,0.7,0.9,1,1.4,1c0.9,0,1.9-0.4,3.1-1.3
		c1.1-0.8,2.1-2,2.9-3.6s1.2-2.8,1.2-3.8c0-1-0.2-1.4-0.5-1.4c-1.6,0-3.3,1.1-5.2,3.4C164.2,377.9,163.2,379.8,163.2,381.3z"/>
	<path class="st3" d="M199.2,384.6c-0.1,0.2-0.4,0.4-0.8,0.6s-0.7,0.3-0.9,0.3c-0.7,0-1.2-0.3-1.8-1s-1.3-2.4-2.4-5.1
		c-1-2.7-1.6-4.3-1.7-4.8l-3.6,6.5c-2,3.6-3.3,5.4-4,5.4c-0.5,0-0.9-0.1-1.2-0.3c-0.3-0.2-0.7-0.7-1-1.4s-0.7-2.2-1.3-4.5
		c-0.5-2.3-1-4.7-1.4-7.1c-0.4-2.4-0.7-3.8-0.8-4.4c-0.1-0.4-0.2-0.7-0.2-0.9c-0.3-0.8-0.4-1.3-0.4-1.7c0-0.4,0.2-0.8,0.6-1.3
		c0.4-0.4,0.8-0.6,1.3-0.6c0.9,0,1.6,0.7,1.9,2.2c0.4,1.5,0.6,2.5,0.6,3.1l0.4,2.5c0.1,0.8,0.3,1.7,0.5,2.7c0.2,1,0.4,1.8,0.5,2.5
		c0.4,2.4,0.6,3.7,0.8,3.9c1.8-2.9,3-4.9,3.6-6c0.6-1.1,1.5-2.8,2.6-5.3c0.1-0.2,0.4-0.5,0.7-0.7c0.3-0.2,0.6-0.3,0.9-0.3
		c0.4,0,0.8,0.2,1.1,0.6s0.8,1.5,1.4,3.3c0,0.1,0.1,0.2,0.1,0.4l1.2,3.1c1.1,2.8,1.6,4.2,1.7,4.3c2.8-5.3,4.5-10.7,5-16.2
		c0-0.4,0.2-0.7,0.5-0.9c0.3-0.2,0.7-0.3,1.2-0.3c0.6,0,1,0.2,1.3,0.6c0.3,0.4,0.4,0.8,0.4,1.3c0,1-0.3,2.5-0.8,4.6
		c-0.5,2.1-1.3,4.3-2.3,6.8l-0.4,1c-0.1,0.3-0.9,1.9-2.4,5C199.7,383.6,199.4,384.2,199.2,384.6z"/>
	<path class="st3" d="M221,377.7c-0.7,2.3-1.9,4.2-3.7,5.8c-1.8,1.6-3.7,2.4-5.5,2.4c-1.4,0-2.6-0.5-3.6-1.6
		c-0.9-1.1-1.4-2.4-1.4-3.9c0-2.5,0.9-5,2.6-7.4s3.8-3.7,6.3-3.7c1.7,0,3,0.6,4.1,1.9c1,1.2,1.6,2.7,1.6,4.4
		C221.3,376.3,221.2,377,221,377.7L221,377.7L221,377.7z M213.4,373.1c-0.7,0.6-1.4,1.6-2,2.9s-1,2.7-1,4c0,0.8,0.1,1.5,0.4,2
		s0.7,0.8,1.2,0.8c1.2,0,2.5-0.7,3.8-2.2s2-3,2-4.8c0-1-0.2-1.8-0.6-2.5c-0.4-0.6-1-1-1.8-1C214.7,372.4,214,372.6,213.4,373.1
		L213.4,373.1L213.4,373.1z"/>
	<path class="st3" d="M227.8,377.9l0.2-0.5c1.2-2.4,2.5-4.3,3.8-5.8c1.4-1.5,2.7-2.2,4-2.2c1,0,1.8,0.3,2.4,0.8s0.9,1.2,0.9,1.9
		c0,0.5-0.1,0.9-0.3,1.2c-0.2,0.3-0.5,0.5-0.9,0.5c-0.6,0-1.2-0.2-1.7-0.7c-0.4-0.3-0.6-0.5-0.8-0.5c-0.7,0-2,1.1-3.7,3.4
		s-2.8,4.8-3.1,7.7c-0.1,0.8-0.3,1.4-0.7,1.7c-0.4,0.3-0.9,0.5-1.5,0.5c-0.7,0-1.2-0.4-1.4-1.1c-0.3-0.8-0.4-2-0.4-3.8
		c0-0.7,0-1.7,0.1-2.9c0-1.1,0.2-2.5,0.3-4.2c0-0.4,0.1-0.8,0.1-1c0.1-1,0.2-1.6,0.3-2c0.1-0.4,0.4-0.7,0.8-1s0.9-0.5,1.4-0.5
		c0.5,0,0.9,0.2,1.2,0.5s0.4,0.6,0.4,1c0,0.5-0.2,1.4-0.7,2.9c-0.2,0.5-0.3,1.1-0.4,1.8L227.8,377.9z"/>
	<path class="st3" d="M253.3,372.9L253.3,372.9L253.3,372.9c-0.6,0.3-1,0.6-1.4,0.8c-0.7,0.4-1.3,0.9-2,1.4
		c-0.8,0.6-1.3,1.1-1.7,1.5c-0.3,0.3-0.5,0.6-0.5,0.7c0,0.2,0.6,0.9,1.7,2.1c1.1,1.2,2,2.1,2.7,2.6s1.3,0.8,2,0.8l0.6,0
		c0.2,0,0.4,0.1,0.6,0.2c0.1,0.1,0.2,0.4,0.2,0.6c0,0.4-0.2,0.9-0.7,1.4s-1.4,0.8-2.6,0.8c-0.7,0-1.4-0.3-2.2-0.8s-1.9-1.7-3.4-3.5
		c-1.2-1.5-1.9-2.2-2-2.2c-0.1,0-0.3,0.2-0.6,0.5s-0.6,0.6-0.7,0.8v0c-0.2,0.8-0.2,1.9-0.2,3.2c0,0.7-0.2,1.2-0.6,1.6
		s-0.9,0.6-1.4,0.6c-0.6,0-1-0.2-1.3-0.5c-0.3-0.3-0.5-0.7-0.5-1c0-0.4,0.1-1.1,0.4-2.3c0.5-2.3,0.9-5.4,1.2-9.2
		c0.3-3.1,0.6-5.4,0.8-7.2c0.2-1.7,0.4-2.8,0.6-3.4c0.2-0.5,0.5-1,0.9-1.3c0.4-0.3,0.8-0.5,1.3-0.5c0.4,0,0.8,0.2,1,0.5
		c0.3,0.4,0.4,0.8,0.4,1.3c0,0.6-0.4,3.1-1.2,7.4l-0.4,1.9h0c-0.4,2.8-0.6,4.5-0.7,4.9l4.5-4.1c2.3-2.2,4-3.3,5.1-3.3
		c1,0,1.6,0.4,1.6,1.2C254.9,371.7,254.4,372.5,253.3,372.9z"/>
	<path class="st3" d="M270.5,380.1c0,1-0.9,2.2-2.6,3.6s-3.6,2.1-5.8,2.1c-1.6,0-2.9-0.5-3.9-1.6c-0.9-1-1.4-2.5-1.4-4.3
		c0-2.7,1-5.3,2.9-7.7s4-3.6,6.2-3.6c1.1,0,2,0.3,2.6,1s1,1.5,1,2.5c0,1.7-0.8,3.3-2.4,4.9c-1.6,1.5-3.7,2.6-6.3,3.2
		c-0.3,0.1-0.4,0.2-0.4,0.5c0,0.5,0.2,0.9,0.6,1.3c0.4,0.4,1,0.6,1.7,0.6c2,0,3.9-1,5.8-3c0.4-0.4,0.7-0.6,1.1-0.6
		C270.2,379.1,270.5,379.5,270.5,380.1z M260.7,377.5c1.5-0.3,2.9-1,4.1-2s1.8-1.9,1.8-2.7c0-0.3-0.1-0.6-0.3-0.8
		c-0.2-0.2-0.4-0.3-0.7-0.3c-0.9,0-1.8,0.6-2.8,1.9S261,376.1,260.7,377.5z"/>
	<path class="st3" d="M276.6,377.9l0.2-0.5c1.2-2.4,2.5-4.3,3.8-5.8c1.4-1.5,2.7-2.2,4-2.2c1,0,1.8,0.3,2.4,0.8s0.9,1.2,0.9,1.9
		c0,0.5-0.1,0.9-0.3,1.2c-0.2,0.3-0.5,0.5-0.9,0.5c-0.6,0-1.2-0.2-1.7-0.7c-0.4-0.3-0.6-0.5-0.8-0.5c-0.7,0-2,1.1-3.7,3.4
		s-2.8,4.8-3.1,7.7c-0.1,0.8-0.3,1.4-0.7,1.7c-0.4,0.3-0.9,0.5-1.5,0.5c-0.7,0-1.2-0.4-1.4-1.1c-0.3-0.8-0.4-2-0.4-3.8
		c0-0.7,0-1.7,0.1-2.9c0-1.1,0.2-2.5,0.3-4.2c0-0.4,0.1-0.8,0.1-1c0.1-1,0.2-1.6,0.3-2c0.1-0.4,0.4-0.7,0.8-1s0.9-0.5,1.4-0.5
		c0.5,0,0.9,0.2,1.2,0.5s0.4,0.6,0.4,1c0,0.5-0.2,1.4-0.7,2.9c-0.2,0.5-0.3,1.1-0.4,1.8L276.6,377.9z"/>
	<path class="st3" d="M295.7,381.4c0-0.5-0.9-1.2-2.5-1.9c-2-1-3.3-1.8-3.9-2.5c-0.6-0.7-0.8-1.5-0.8-2.3c0-1.7,1-3.2,2.9-4.5
		c1.9-1.3,3.7-1.9,5.4-1.9c1.6,0,2.5,0.7,2.5,2.2c0,0.4-0.2,0.7-0.6,1s-0.7,0.5-1,0.5c-0.1,0-0.3-0.1-0.6-0.2s-0.5-0.2-0.6-0.2
		c-0.9,0-1.8,0.3-2.9,0.9s-1.6,1.3-1.6,2.1c0,0.4,0.2,0.8,0.6,1.1c0.4,0.4,1.1,0.8,2.3,1.3c1.7,0.8,2.8,1.5,3.3,2.2s0.8,1.4,0.8,2.1
		c0,1.4-1,2.6-2.9,3.6c-1.9,1-4.1,1.4-6.5,1.4c-1.8,0-2.7-0.6-2.7-1.9c0-0.5,0.2-0.9,0.6-1.2s0.8-0.5,1.2-0.5c0.2,0,0.5,0.1,0.9,0.2
		c0.4,0.1,0.8,0.2,1.1,0.2c0.9,0,1.9-0.1,2.9-0.4S295.4,381.9,295.7,381.4z"/>
	<path class="st3" d="M317.5,377.7l-0.2,2.6c-0.1,0.8-0.1,1.7-0.1,2.5c0,0.7,0.1,1.6,0.2,2.6c-0.1,0.3-0.3,0.6-0.7,0.9
		s-0.8,0.4-1.2,0.4c-1.3,0-2-0.9-2-2.5c0-0.8,0.2-2.5,0.6-5.4c0.3-2,0.4-3.6,0.4-4.6c0-0.1-0.1-0.1-0.2-0.2c-0.7-0.4-1-0.8-1-1.2
		c0-0.5,0.4-1.1,1.1-1.7c0.4-0.3,0.6-0.6,0.7-1c0.1-0.4,0.2-1,0.4-1.8c0.5-3.1,1.3-5.3,2.5-6.6c1.1-1.3,2.5-2,4.2-2
		c1,0,1.8,0.3,2.5,1c0.7,0.6,1,1.5,1,2.4c0,0.9-0.2,1.8-0.6,2.7c-0.4,0.9-0.9,1.4-1.6,1.4c-0.3,0-0.5-0.1-0.7-0.3
		c-0.2-0.2-0.3-0.4-0.3-0.7l0.1-1.3c0-1.5-0.3-2.3-1-2.3c-0.8,0-1.5,1-2.2,3c-0.7,2-1,3.7-1,5.1c0,0.1,0.1,0.2,0.3,0.2
		c2,0,3.5,0,4.3,0s1.3,0.3,1.3,1c0,0.6-0.5,1.1-1.5,1.4c-1,0.3-2.1,0.5-3.2,0.5c-0.8,0.1-1.2,0.1-1.5,0.2
		C317.7,375.3,317.6,376.6,317.5,377.7L317.5,377.7L317.5,377.7z"/>
	<path class="st3" d="M328.2,377.9l0.2-0.5c1.2-2.4,2.5-4.3,3.8-5.8c1.4-1.5,2.7-2.2,4-2.2c1,0,1.8,0.3,2.4,0.8s0.9,1.2,0.9,1.9
		c0,0.5-0.1,0.9-0.3,1.2c-0.2,0.3-0.5,0.5-0.9,0.5c-0.6,0-1.2-0.2-1.7-0.7c-0.4-0.3-0.6-0.5-0.8-0.5c-0.7,0-2,1.1-3.7,3.4
		s-2.8,4.8-3.1,7.7c-0.1,0.8-0.3,1.4-0.7,1.7c-0.4,0.3-0.9,0.5-1.5,0.5c-0.7,0-1.2-0.4-1.4-1.1c-0.3-0.8-0.4-2-0.4-3.8
		c0-0.7,0-1.7,0.1-2.9c0-1.1,0.2-2.5,0.3-4.2c0-0.4,0.1-0.8,0.1-1c0.1-1,0.2-1.6,0.3-2c0.1-0.4,0.4-0.7,0.8-1s0.9-0.5,1.4-0.5
		c0.5,0,0.9,0.2,1.2,0.5s0.4,0.6,0.4,1c0,0.5-0.2,1.4-0.7,2.9c-0.2,0.5-0.3,1.1-0.4,1.8L328.2,377.9z"/>
	<path class="st3" d="M349.8,380.3c-2.6,3.4-5,5.1-7.4,5.1c-0.9,0-1.6-0.3-2.3-1s-1-1.6-1-2.7c0-2.6,1.2-5.3,3.5-8.3
		c2.3-2.9,4.6-4.4,7-4.4c1.2,0,2,0.6,2.3,1.8c1.1,0,1.7,0.4,1.7,1.3c0,0.4-0.1,1.2-0.3,2.2c-0.4,2-0.6,3.6-0.6,4.8
		c0,1.2,0.1,2.1,0.3,2.6s0.3,0.8,0.4,1s0.3,0.3,0.7,0.5c0.4,0.2,0.6,0.4,0.6,0.8c0,0.5-0.3,0.9-0.8,1.2s-1,0.5-1.6,0.5
		C350.5,385.8,349.6,383.9,349.8,380.3z M348.9,372.1c-1,0-2.3,1.1-3.8,3.3c-1.6,2.2-2.4,4-2.4,5.6c0,0.8,0.2,1.2,0.5,1.2
		c1.2,0,2.6-1,4.3-3.1c1.7-2,2.5-3.8,2.5-5.4c0-0.5-0.1-0.9-0.3-1.2C349.5,372.3,349.2,372.1,348.9,372.1z"/>
	<path class="st3" d="M361.2,384.3c-0.1,1-0.7,1.5-1.7,1.5c-1.3,0-1.9-0.9-1.9-2.8c0-3,0.2-5.5,0.5-7.7c0.3-1.6,0.4-3.3,0.4-4.9
		c0-0.4,0.1-0.7,0.4-1c0.2-0.3,0.6-0.4,1-0.4c1.5,0,2.2,0.9,2.2,2.7c0,0.6-0.3,2-0.8,4.4c-0.3,1.4-0.5,2.4-0.5,3.1
		c2.8-6.1,5.3-9.2,7.6-9.2c0.9,0,1.6,0.4,2.2,1.1s0.8,2.3,0.9,4.8c0,2.3,0.1,3.4,0.4,3.4c0.2,0,0.8-1.1,1.8-3.3c1.2-2.4,2.2-4,3-4.8
		s1.7-1.2,2.6-1.2c1.1,0,1.9,0.5,2.4,1.4c0.5,0.9,0.8,2.5,1,4.7c0.1,1.8,0.3,3.1,0.6,4s0.7,1.5,1.3,1.8c0.5,0.2,0.7,0.6,0.7,1.1
		c0,0.4-0.3,0.8-0.8,1.3c-0.6,0.4-1.1,0.6-1.7,0.6c-1,0-1.8-0.5-2.3-1.5c-0.6-1-0.9-3-1.1-5.9c-0.1-1.4-0.2-2.4-0.3-2.8
		c-0.1-0.5-0.3-0.7-0.5-0.7c-0.2,0-0.5,0.4-0.9,1c-0.4,0.7-1.1,2.1-2.1,4.2c-0.9,1.9-1.7,3.2-2.3,3.9s-1.3,1.1-2.1,1.1
		c-0.6,0-1.1-0.2-1.7-0.7s-0.9-2.3-0.9-5.3c0-2.7-0.2-4.1-0.5-4.1c-0.4,0-1.4,1.2-3,3.6S362,382.4,361.2,384.3z"/>
	<path class="st3" d="M400.4,380.1c0,1-0.9,2.2-2.6,3.6s-3.6,2.1-5.8,2.1c-1.6,0-3-0.5-3.9-1.6c-0.9-1-1.4-2.5-1.4-4.3
		c0-2.7,1-5.3,2.9-7.7c1.9-2.4,4-3.6,6.2-3.6c1.1,0,2,0.3,2.6,1s1,1.5,1,2.5c0,1.7-0.8,3.3-2.4,4.9c-1.6,1.5-3.7,2.6-6.3,3.2
		c-0.3,0.1-0.4,0.2-0.4,0.5c0,0.5,0.2,0.9,0.6,1.3c0.4,0.4,1,0.6,1.7,0.6c2,0,3.9-1,5.8-3c0.4-0.4,0.7-0.6,1.1-0.6
		C400.2,379.1,400.4,379.5,400.4,380.1z M390.6,377.5c1.5-0.3,2.9-1,4.1-2s1.8-1.9,1.8-2.7c0-0.3-0.1-0.6-0.3-0.8
		c-0.2-0.2-0.4-0.3-0.7-0.3c-0.9,0-1.8,0.6-2.8,1.9S390.9,376.1,390.6,377.5z"/>
	<path class="st3" d="M414.7,376c-0.1,0.2-0.8,1.7-2.2,4.6c-0.1,0.3-0.2,0.4-0.2,0.4c-1.7,3.4-2.9,5-3.8,5c-1.4,0-2.6-1.7-3.7-5.2
		c-1.1-3.5-1.6-6.4-1.6-8.7c0-0.8,0.2-1.5,0.6-2s1-0.8,1.7-0.8c0.5,0,0.9,0.2,1.2,0.6c0.4,0.4,0.5,0.8,0.5,1.1l-0.1,1.9
		c0,0.6-0.1,1.2-0.1,1.8c0,1,0.2,2.4,0.6,4.1c0.4,1.7,0.7,2.6,0.9,2.6c0.1,0,0.6-0.9,1.5-2.6c1.1-2.3,2-4,2.7-5.2h0
		c1-1.9,1.8-3.1,2.6-3.6c0.6,0.1,1.1,0.3,1.5,0.6s0.6,0.7,0.6,1.1c0,0.3,0,0.6,0,0.7c0,0.2-0.1,0.3-0.1,0.5c0,2.9,0.8,5.6,2.4,8
		c0.1,0.1,0.2,0,0.3-0.2s0.3-1,0.6-2.2c0.6-2.2,1.3-4.2,2-5.9c0.8-1.7,1.4-2.7,1.8-3.1s1-0.6,1.6-0.6c0.4,0,0.7,0.1,1,0.4
		c0.3,0.3,0.4,0.6,0.4,0.9c0,0.4-0.1,0.7-0.3,1c-1.3,1.7-2.4,4-3.4,7c-1,3.1-1.7,5-2.1,5.6s-0.7,1-1,1c-0.9,0-1.7-0.2-2.2-0.5
		c-0.6-0.3-1.1-1-1.7-1.9s-1-2.1-1.5-3.5S414.8,376.6,414.7,376z"/>
	<path class="st3" d="M443.1,377.7c-0.7,2.3-1.9,4.2-3.7,5.8c-1.8,1.6-3.7,2.4-5.5,2.4c-1.4,0-2.6-0.5-3.6-1.6
		c-0.9-1.1-1.4-2.4-1.4-3.9c0-2.5,0.9-5,2.6-7.4s3.8-3.7,6.3-3.7c1.7,0,3,0.6,4.1,1.9c1,1.2,1.6,2.7,1.6,4.4
		C443.4,376.3,443.3,377,443.1,377.7L443.1,377.7L443.1,377.7z M435.5,373.1c-0.7,0.6-1.4,1.6-2,2.9s-1,2.7-1,4c0,0.8,0.1,1.5,0.4,2
		s0.7,0.8,1.2,0.8c1.2,0,2.5-0.7,3.8-2.2s2-3,2-4.8c0-1-0.2-1.8-0.6-2.5c-0.4-0.6-1-1-1.8-1C436.7,372.4,436.1,372.6,435.5,373.1
		L435.5,373.1L435.5,373.1z"/>
	<path class="st3" d="M449.8,377.9l0.2-0.5c1.2-2.4,2.5-4.3,3.8-5.8c1.4-1.5,2.7-2.2,4-2.2c1,0,1.8,0.3,2.4,0.8s0.9,1.2,0.9,1.9
		c0,0.5-0.1,0.9-0.3,1.2c-0.2,0.3-0.5,0.5-0.9,0.5c-0.6,0-1.2-0.2-1.7-0.7c-0.4-0.3-0.6-0.5-0.8-0.5c-0.7,0-2,1.1-3.7,3.4
		s-2.8,4.8-3.1,7.7c-0.1,0.8-0.3,1.4-0.7,1.7c-0.4,0.3-0.9,0.5-1.5,0.5c-0.7,0-1.2-0.4-1.4-1.1c-0.3-0.8-0.4-2-0.4-3.8
		c0-0.7,0-1.7,0.1-2.9c0-1.1,0.2-2.5,0.3-4.2c0-0.4,0.1-0.8,0.1-1c0.1-1,0.2-1.6,0.3-2c0.1-0.4,0.4-0.7,0.8-1s0.9-0.5,1.4-0.5
		c0.5,0,0.9,0.2,1.2,0.5s0.4,0.6,0.4,1c0,0.5-0.2,1.4-0.7,2.9c-0.2,0.5-0.3,1.1-0.4,1.8L449.8,377.9z"/>
	<path class="st3" d="M475.4,372.9L475.4,372.9L475.4,372.9c-0.6,0.3-1,0.6-1.4,0.8c-0.7,0.4-1.3,0.9-2,1.4
		c-0.8,0.6-1.3,1.1-1.7,1.5c-0.3,0.3-0.5,0.6-0.5,0.7c0,0.2,0.6,0.9,1.7,2.1c1.1,1.2,2,2.1,2.7,2.6s1.3,0.8,2,0.8l0.6,0
		c0.2,0,0.4,0.1,0.6,0.2c0.1,0.1,0.2,0.4,0.2,0.6c0,0.4-0.2,0.9-0.7,1.4s-1.4,0.8-2.6,0.8c-0.7,0-1.4-0.3-2.2-0.8s-1.9-1.7-3.4-3.5
		c-1.2-1.5-1.9-2.2-2-2.2c-0.1,0-0.3,0.2-0.6,0.5s-0.6,0.6-0.7,0.8v0c-0.2,0.8-0.2,1.9-0.2,3.2c0,0.7-0.2,1.2-0.6,1.6
		s-0.9,0.6-1.4,0.6c-0.6,0-1-0.2-1.3-0.5c-0.3-0.3-0.5-0.7-0.5-1c0-0.4,0.1-1.1,0.4-2.3c0.5-2.3,0.9-5.4,1.2-9.2
		c0.3-3.1,0.6-5.4,0.8-7.2c0.2-1.7,0.4-2.8,0.6-3.4c0.2-0.5,0.5-1,0.9-1.3c0.4-0.3,0.8-0.5,1.3-0.5c0.4,0,0.8,0.2,1,0.5
		c0.3,0.4,0.4,0.8,0.4,1.3c0,0.6-0.4,3.1-1.2,7.4l-0.4,1.9h0c-0.4,2.8-0.6,4.5-0.7,4.9l4.5-4.1c2.3-2.2,4-3.3,5.1-3.3
		c1,0,1.6,0.4,1.6,1.2C476.9,371.7,476.4,372.5,475.4,372.9z"/>
	<path class="st3" d="M495.5,377.7l-0.2,2.6c-0.1,0.8-0.1,1.7-0.1,2.5c0,0.7,0.1,1.6,0.2,2.6c-0.1,0.3-0.3,0.6-0.7,0.9
		s-0.8,0.4-1.2,0.4c-1.3,0-2-0.9-2-2.5c0-0.8,0.2-2.5,0.6-5.4c0.3-2,0.4-3.6,0.4-4.6c0-0.1-0.1-0.1-0.2-0.2c-0.7-0.4-1-0.8-1-1.2
		c0-0.5,0.4-1.1,1.1-1.7c0.4-0.3,0.6-0.6,0.7-1c0.1-0.4,0.2-1,0.4-1.8c0.5-3.1,1.3-5.3,2.5-6.6c1.1-1.3,2.5-2,4.2-2
		c1,0,1.8,0.3,2.5,1c0.7,0.6,1,1.5,1,2.4c0,0.9-0.2,1.8-0.6,2.7c-0.4,0.9-0.9,1.4-1.6,1.4c-0.3,0-0.5-0.1-0.7-0.3
		c-0.2-0.2-0.3-0.4-0.3-0.7l0.1-1.3c0-1.5-0.3-2.3-1-2.3c-0.8,0-1.5,1-2.2,3c-0.7,2-1,3.7-1,5.1c0,0.1,0.1,0.2,0.3,0.2
		c2,0,3.4,0,4.3,0s1.3,0.3,1.3,1c0,0.6-0.5,1.1-1.5,1.4c-1,0.3-2.1,0.5-3.2,0.5c-0.8,0.1-1.2,0.1-1.5,0.2
		C495.8,375.3,495.6,376.6,495.5,377.7L495.5,377.7L495.5,377.7z"/>
	<path class="st3" d="M516.5,377.7c-0.7,2.3-1.9,4.2-3.7,5.8c-1.8,1.6-3.7,2.4-5.5,2.4c-1.4,0-2.6-0.5-3.6-1.6
		c-0.9-1.1-1.4-2.4-1.4-3.9c0-2.5,0.9-5,2.6-7.4s3.8-3.7,6.3-3.7c1.7,0,3,0.6,4.1,1.9c1,1.2,1.6,2.7,1.6,4.4
		C516.7,376.3,516.6,377,516.5,377.7L516.5,377.7L516.5,377.7z M508.8,373.1c-0.7,0.6-1.4,1.6-2,2.9s-1,2.7-1,4c0,0.8,0.1,1.5,0.4,2
		s0.7,0.8,1.2,0.8c1.2,0,2.5-0.7,3.8-2.2s2-3,2-4.8c0-1-0.2-1.8-0.6-2.5c-0.4-0.6-1-1-1.8-1C510.1,372.4,509.4,372.6,508.8,373.1
		L508.8,373.1L508.8,373.1z"/>
	<path class="st3" d="M523.2,377.9l0.2-0.5c1.2-2.4,2.5-4.3,3.8-5.8c1.4-1.5,2.7-2.2,4-2.2c1,0,1.8,0.3,2.4,0.8s0.9,1.2,0.9,1.9
		c0,0.5-0.1,0.9-0.3,1.2c-0.2,0.3-0.5,0.5-0.9,0.5c-0.6,0-1.2-0.2-1.7-0.7c-0.4-0.3-0.6-0.5-0.8-0.5c-0.7,0-2,1.1-3.7,3.4
		s-2.8,4.8-3.1,7.7c-0.1,0.8-0.3,1.4-0.7,1.7c-0.4,0.3-0.9,0.5-1.5,0.5c-0.7,0-1.2-0.4-1.4-1.1c-0.3-0.8-0.4-2-0.4-3.8
		c0-0.7,0-1.7,0.1-2.9c0-1.1,0.2-2.5,0.3-4.2c0-0.4,0.1-0.8,0.1-1c0.1-1,0.2-1.6,0.3-2c0.1-0.4,0.4-0.7,0.8-1s0.9-0.5,1.4-0.5
		c0.5,0,0.9,0.2,1.2,0.5s0.4,0.6,0.4,1c0,0.5-0.2,1.4-0.7,2.9c-0.2,0.5-0.3,1.1-0.4,1.8L523.2,377.9z"/>
	<path class="st3" d="M547.8,375.4L547.8,375.4c0.3-1.8,0.5-2.8,0.5-3c0-0.7,0.2-1.3,0.5-1.8s0.8-0.7,1.3-0.7c0.7,0,1.2,0.2,1.6,0.5
		s0.6,0.7,0.6,1.1s-0.2,1.2-0.5,2.4l-0.1,0.3c-0.5,1.9-0.9,3.4-1,4.6s-0.2,2.2-0.2,2.9c0,0.6,0.1,1.4,0.3,2.4c0,0.2,0,0.3,0,0.4
		c0,0.2-0.2,0.5-0.6,0.9s-0.9,0.6-1.4,0.6c-1.3,0-1.9-1-1.9-2.9c0-1.7,0.2-3.7,0.7-6.1C547.6,376.4,547.7,375.9,547.8,375.4z
		 M554.9,363.4c0,0.7-0.3,1.3-0.9,1.8c-0.6,0.5-1.2,0.8-1.6,0.8c-0.6,0-1.1-0.2-1.6-0.7s-0.7-1-0.7-1.5c0-0.7,0.2-1.3,0.7-1.7
		c0.4-0.4,1.1-0.6,1.9-0.6c0.7,0,1.2,0.2,1.6,0.6C554.7,362.4,554.9,362.9,554.9,363.4z"/>
	<path class="st3" d="M567.7,383c-0.5-0.9-0.8-2.5-1-4.9c-0.2-2.5-0.7-3.8-1.4-3.8c-0.7,0-1.9,1.3-3.6,3.9c-1.7,2.6-2.8,4.5-3.2,5.8
		c-0.1,0.4-0.3,0.7-0.5,0.9s-0.5,0.4-0.7,0.4c-1.5,0-2.2-0.7-2.2-2c0-0.5,0.1-1.5,0.4-3.1c0.4-2.1,0.6-4.7,0.6-7.7
		c0-0.5,0.2-0.9,0.6-1.5c0.4-0.5,0.8-0.8,1.3-0.8c0.6,0,1,0.1,1.3,0.4s0.5,1,0.5,2.3c0,0.9-0.3,2.7-0.8,5.4c2.1-5,4.5-7.4,7.1-7.4
		c2.3,0,3.6,1.8,4,5.3c0.4,3.6,0.8,5.4,1.3,5.4c0.2,0,0.5,0,0.8-0.1c0.4-0.1,0.6-0.2,0.8-0.2c0.5,0,0.7,0.3,0.7,0.8
		c0,0.5-0.3,1-1,1.6c-0.6,0.6-1.5,0.8-2.4,0.8C568.9,384.5,568.1,384,567.7,383L567.7,383L567.7,383z"/>
	<path class="st3" d="M580.5,360.4c1.1,0,1.6,0.6,1.6,1.7c0,0.5-0.1,1.1-0.2,1.7c-0.1,0.6-0.5,2.1-1.2,4.5c-0.5,1.7-0.8,3.7-1.1,5.7
		c-0.2,2.1-0.4,3.7-0.4,4.8c0,1.2,0.1,2.7,0.3,4.4c0,0.5,0.1,0.7,0.1,0.9c0,0.6-0.2,1.1-0.6,1.5s-0.9,0.6-1.4,0.6
		c-0.7,0-1.2-0.3-1.5-1s-0.4-1.8-0.4-3.4c0-3.4,0.4-7.5,1.2-12.1s1.5-7.4,2-8.2S579.9,360.4,580.5,360.4z"/>
	<path class="st3" d="M584.8,375.4L584.8,375.4c0.3-1.8,0.5-2.8,0.5-3c0-0.7,0.2-1.3,0.5-1.8s0.8-0.7,1.3-0.7c0.7,0,1.2,0.2,1.6,0.5
		s0.6,0.7,0.6,1.1s-0.2,1.2-0.5,2.4l-0.1,0.3c-0.5,1.9-0.9,3.4-1,4.6s-0.2,2.2-0.2,2.9c0,0.6,0.1,1.4,0.3,2.4c0,0.2,0,0.3,0,0.4
		c0,0.2-0.2,0.5-0.6,0.9s-0.9,0.6-1.4,0.6c-1.3,0-1.9-1-1.9-2.9c0-1.7,0.2-3.7,0.7-6.1C584.6,376.4,584.7,375.9,584.8,375.4z
		 M591.8,363.4c0,0.7-0.3,1.3-0.9,1.8c-0.6,0.5-1.2,0.8-1.6,0.8c-0.6,0-1.1-0.2-1.6-0.7s-0.7-1-0.7-1.5c0-0.7,0.2-1.3,0.7-1.7
		c0.4-0.4,1.1-0.6,1.9-0.6c0.7,0,1.2,0.2,1.6,0.6C591.6,362.4,591.8,362.9,591.8,363.4z"/>
	<path class="st3" d="M604.6,383c-0.5-0.9-0.8-2.5-1-4.9c-0.2-2.5-0.7-3.8-1.4-3.8c-0.7,0-1.9,1.3-3.6,3.9c-1.7,2.6-2.8,4.5-3.2,5.8
		c-0.1,0.4-0.3,0.7-0.5,0.9s-0.5,0.4-0.7,0.4c-1.5,0-2.2-0.7-2.2-2c0-0.5,0.1-1.5,0.4-3.1c0.4-2.1,0.6-4.7,0.6-7.7
		c0-0.5,0.2-0.9,0.6-1.5c0.4-0.5,0.8-0.8,1.3-0.8c0.6,0,1,0.1,1.3,0.4s0.5,1,0.5,2.3c0,0.9-0.3,2.7-0.8,5.4c2.1-5,4.5-7.4,7.1-7.4
		c2.3,0,3.6,1.8,4,5.3c0.4,3.6,0.8,5.4,1.3,5.4c0.2,0,0.5,0,0.8-0.1c0.4-0.1,0.6-0.2,0.8-0.2c0.5,0,0.7,0.3,0.7,0.8
		c0,0.5-0.3,1-1,1.6c-0.6,0.6-1.5,0.8-2.4,0.8C605.9,384.5,605.1,384,604.6,383L604.6,383L604.6,383z"/>
	<path class="st3" d="M625.3,380.1c0,1-0.9,2.2-2.6,3.6s-3.6,2.1-5.8,2.1c-1.7,0-2.9-0.5-3.9-1.6c-0.9-1-1.4-2.5-1.4-4.3
		c0-2.7,1-5.3,2.9-7.7s4-3.6,6.2-3.6c1.1,0,2,0.3,2.6,1s1,1.5,1,2.5c0,1.7-0.8,3.3-2.4,4.9c-1.6,1.5-3.7,2.6-6.3,3.2
		c-0.3,0.1-0.4,0.2-0.4,0.5c0,0.5,0.2,0.9,0.6,1.3c0.4,0.4,1,0.6,1.7,0.6c2,0,3.9-1,5.8-3c0.4-0.4,0.7-0.6,1.1-0.6
		C625,379.1,625.3,379.5,625.3,380.1z M615.4,377.5c1.5-0.3,2.9-1,4.1-2c1.2-1,1.8-1.9,1.8-2.7c0-0.3-0.1-0.6-0.3-0.8
		c-0.2-0.2-0.4-0.3-0.7-0.3c-0.8,0-1.8,0.6-2.8,1.9S615.8,376.1,615.4,377.5z"/>
	<path class="st3" d="M643.7,377.7l-0.2,2.6c-0.1,0.8-0.1,1.7-0.1,2.5c0,0.7,0.1,1.6,0.2,2.6c-0.1,0.3-0.3,0.6-0.7,0.9
		s-0.8,0.4-1.2,0.4c-1.3,0-2-0.9-2-2.5c0-0.8,0.2-2.5,0.6-5.4c0.3-2,0.4-3.6,0.4-4.6c0-0.1-0.1-0.1-0.2-0.2c-0.7-0.4-1-0.8-1-1.2
		c0-0.5,0.4-1.1,1.1-1.7c0.4-0.3,0.6-0.6,0.7-1c0.1-0.4,0.2-1,0.4-1.8c0.5-3.1,1.3-5.3,2.5-6.6c1.1-1.3,2.5-2,4.2-2
		c1,0,1.8,0.3,2.5,1c0.7,0.6,1,1.5,1,2.4c0,0.9-0.2,1.8-0.6,2.7c-0.4,0.9-0.9,1.4-1.6,1.4c-0.3,0-0.5-0.1-0.7-0.3
		c-0.2-0.2-0.3-0.4-0.3-0.7l0.1-1.3c0-1.5-0.3-2.3-1-2.3c-0.8,0-1.5,1-2.2,3c-0.7,2-1,3.7-1,5.1c0,0.1,0.1,0.2,0.3,0.2
		c2,0,3.5,0,4.3,0c0.8,0,1.3,0.3,1.3,1c0,0.6-0.5,1.1-1.5,1.4c-1,0.3-2.1,0.5-3.2,0.5c-0.8,0.1-1.2,0.1-1.5,0.2
		C644,375.3,643.8,376.6,643.7,377.7L643.7,377.7L643.7,377.7z"/>
	<path class="st3" d="M661.1,379.8c-0.9,1.7-2,3.1-3.3,4.1c-1.2,1-2.5,1.5-3.8,1.5c-0.8,0-1.5-0.4-2.3-1.2c-0.8-0.8-1.2-2-1.2-3.6
		c0-1.2,0.3-2.9,0.9-5.3c0.5-1.9,0.8-3.4,0.8-4.4c0.4-0.8,1-1.2,1.8-1.2c0.6,0,1,0.2,1.4,0.6c0.3,0.4,0.5,0.8,0.5,1.1
		c0,0.7-0.2,1.7-0.7,3c-0.3,0.8-0.6,1.8-0.9,3.2c-0.3,1.4-0.5,2.3-0.5,2.7c0,1.3,0.3,1.9,0.8,1.9c0.8,0,2-0.8,3.4-2.4s2.4-3.3,2.8-5
		c0.4-1.7,0.8-2.8,1.2-3.3s0.8-0.8,1.4-0.8c1,0,1.5,0.6,1.5,1.7c0,0.2-0.1,0.5-0.2,1c-0.6,1.7-0.9,3.7-0.9,5.8
		c0,2.5,0.4,4.1,1.3,4.6c0.3,0.2,0.4,0.4,0.4,0.6c0,0.4-0.2,0.7-0.7,1s-1,0.5-1.4,0.5c-0.8,0-1.4-0.5-1.8-1.6
		C661.3,383.1,661.1,381.6,661.1,379.8z"/>
	<path class="st3" d="M681.4,383c-0.5-0.9-0.8-2.5-1-4.9c-0.2-2.5-0.7-3.8-1.4-3.8c-0.7,0-1.9,1.3-3.6,3.9c-1.7,2.6-2.8,4.5-3.2,5.8
		c-0.1,0.4-0.3,0.7-0.5,0.9c-0.2,0.2-0.5,0.4-0.7,0.4c-1.5,0-2.2-0.7-2.2-2c0-0.5,0.1-1.5,0.4-3.1c0.4-2.1,0.6-4.7,0.6-7.7
		c0-0.5,0.2-0.9,0.6-1.5c0.4-0.5,0.8-0.8,1.3-0.8c0.6,0,1,0.1,1.3,0.4s0.5,1,0.5,2.3c0,0.9-0.3,2.7-0.8,5.4c2.1-5,4.5-7.4,7.1-7.4
		c2.3,0,3.6,1.8,4,5.3c0.4,3.6,0.8,5.4,1.3,5.4c0.2,0,0.5,0,0.8-0.1c0.4-0.1,0.6-0.2,0.8-0.2c0.5,0,0.7,0.3,0.7,0.8
		c0,0.5-0.3,1-1,1.6c-0.6,0.6-1.5,0.8-2.4,0.8C682.6,384.5,681.8,384,681.4,383L681.4,383L681.4,383z"/>
	<path class="st3" d="M693.2,386c-1.6,0-2.8-0.4-3.7-1.3s-1.3-2.1-1.3-3.7c0-2.5,1-5.1,3-8s4-4.3,5.9-4.3c0.9,0,1.7,0.5,2.4,1.4
		c0.7,0.9,1,1.9,1,2.9c0,0.9-0.2,1.6-0.5,1.9c-0.3,0.3-0.7,0.5-1,0.5c-0.9,0-1.5-0.7-1.7-2c-0.1-1-0.4-1.4-0.7-1.4
		c-0.8,0-1.8,1.1-3,3.3s-1.9,4.1-1.9,5.7c0,1.3,0.7,2,2.1,2c1.6,0,3.2-0.6,4.8-1.7c0.8-0.5,1.3-0.8,1.8-0.8c0.5,0,0.8,0.3,0.8,0.8
		c0,0.8-0.9,1.7-2.6,2.9C696.9,385.4,695.1,386,693.2,386z"/>
	<path class="st3" d="M710,373.3c-0.1,0-0.4,1.1-0.8,3.3c-0.5,2.2-0.7,3.5-0.7,4c0,0.8,0.1,1.4,0.3,1.7c0.2,0.3,0.5,0.5,0.8,0.5
		c0.5,0,1.1-0.1,1.6-0.3c0.5-0.2,1.2-0.6,2-1.3c0.5-0.4,0.9-0.6,1.3-0.6c0.3,0,0.5,0.1,0.7,0.2c0.2,0.2,0.3,0.4,0.3,0.6
		c0,0.9-0.7,1.8-2.1,2.9s-2.9,1.6-4.4,1.6c-1.3,0-2.3-0.4-3-1.1c-0.7-0.8-1-1.9-1-3.3c0-1.3,0.5-3.9,1.5-7.9
		c-0.6,0.1-1.1,0.1-1.3,0.1h-0.3c-0.4,0-0.9-0.1-1.4-0.4c-0.5-0.3-0.7-0.8-0.7-1.4c0-0.8,0.5-1.2,1.4-1.2l3.1-0.1
		c0.4-1.2,0.8-2.7,1.3-4.6c0.3-1.2,0.9-1.8,1.9-1.8c0.5,0,1,0.2,1.3,0.5c0.3,0.3,0.5,0.7,0.5,1.1c0,0.2-0.4,1.7-1.2,4.5
		c3.1-0.3,4.8-0.4,5.1-0.4c0.5,0,0.9,0.1,1,0.2c0.2,0.2,0.2,0.4,0.2,0.9c0,0.9-0.7,1.4-2.2,1.7L710,373.3z"/>
	<path class="st3" d="M719.1,375.4L719.1,375.4c0.3-1.8,0.5-2.8,0.5-3c0-0.7,0.2-1.3,0.5-1.8c0.3-0.5,0.8-0.7,1.3-0.7
		c0.7,0,1.2,0.2,1.6,0.5s0.6,0.7,0.6,1.1s-0.2,1.2-0.5,2.4l-0.1,0.3c-0.5,1.9-0.9,3.4-1,4.6s-0.2,2.2-0.2,2.9c0,0.6,0.1,1.4,0.3,2.4
		c0,0.2,0,0.3,0,0.4c0,0.2-0.2,0.5-0.6,0.9c-0.4,0.4-0.9,0.6-1.4,0.6c-1.3,0-1.9-1-1.9-2.9c0-1.7,0.2-3.7,0.7-6.1
		C718.9,376.4,719,375.9,719.1,375.4z M726.2,363.4c0,0.7-0.3,1.3-0.9,1.8c-0.6,0.5-1.2,0.8-1.6,0.8c-0.6,0-1.1-0.2-1.6-0.7
		c-0.5-0.5-0.7-1-0.7-1.5c0-0.7,0.2-1.3,0.7-1.7c0.4-0.4,1.1-0.6,1.9-0.6c0.7,0,1.2,0.2,1.6,0.6
		C725.9,362.4,726.2,362.9,726.2,363.4z"/>
	<path class="st3" d="M740.5,377.7c-0.7,2.3-1.9,4.2-3.7,5.8c-1.8,1.6-3.7,2.4-5.5,2.4c-1.4,0-2.6-0.5-3.6-1.6
		c-0.9-1.1-1.4-2.4-1.4-3.9c0-2.5,0.9-5,2.6-7.4s3.8-3.7,6.3-3.7c1.7,0,3,0.6,4.1,1.9c1,1.2,1.6,2.7,1.6,4.4
		C740.7,376.3,740.7,377,740.5,377.7L740.5,377.7L740.5,377.7z M732.9,373.1c-0.7,0.6-1.4,1.6-2,2.9s-1,2.7-1,4c0,0.8,0.1,1.5,0.4,2
		c0.3,0.5,0.7,0.8,1.2,0.8c1.2,0,2.5-0.7,3.8-2.2s2-3,2-4.8c0-1-0.2-1.8-0.6-2.5c-0.4-0.6-1-1-1.8-1
		C734.1,372.4,733.5,372.6,732.9,373.1L732.9,373.1L732.9,373.1z"/>
	<path class="st3" d="M755.9,383c-0.5-0.9-0.8-2.5-1-4.9c-0.2-2.5-0.7-3.8-1.4-3.8c-0.7,0-1.9,1.3-3.6,3.9c-1.7,2.6-2.8,4.5-3.2,5.8
		c-0.1,0.4-0.3,0.7-0.5,0.9c-0.2,0.2-0.5,0.4-0.7,0.4c-1.5,0-2.2-0.7-2.2-2c0-0.5,0.1-1.5,0.4-3.1c0.4-2.1,0.6-4.7,0.6-7.7
		c0-0.5,0.2-0.9,0.6-1.5c0.4-0.5,0.8-0.8,1.3-0.8c0.6,0,1,0.1,1.3,0.4s0.5,1,0.5,2.3c0,0.9-0.3,2.7-0.8,5.4c2.1-5,4.5-7.4,7.1-7.4
		c2.3,0,3.6,1.8,4,5.3c0.4,3.6,0.8,5.4,1.3,5.4c0.2,0,0.5,0,0.8-0.1c0.4-0.1,0.6-0.2,0.8-0.2c0.5,0,0.7,0.3,0.7,0.8
		c0,0.5-0.3,1-1,1.6c-0.6,0.6-1.5,0.8-2.4,0.8C757.1,384.5,756.3,384,755.9,383L755.9,383L755.9,383z"/>
	<path class="st3" d="M770.3,381.4c0-0.5-0.9-1.2-2.5-1.9c-2-1-3.3-1.8-3.9-2.5c-0.6-0.7-0.8-1.5-0.8-2.3c0-1.7,1-3.2,2.9-4.5
		c1.9-1.3,3.7-1.9,5.4-1.9c1.7,0,2.5,0.7,2.5,2.2c0,0.4-0.2,0.7-0.6,1c-0.4,0.3-0.7,0.5-1,0.5c-0.1,0-0.3-0.1-0.6-0.2
		s-0.5-0.2-0.6-0.2c-0.9,0-1.8,0.3-2.9,0.9s-1.6,1.3-1.6,2.1c0,0.4,0.2,0.8,0.6,1.1c0.4,0.4,1.1,0.8,2.3,1.3
		c1.7,0.8,2.8,1.5,3.3,2.2s0.8,1.4,0.8,2.1c0,1.4-1,2.6-2.9,3.6c-1.9,1-4.1,1.4-6.5,1.4c-1.8,0-2.7-0.6-2.7-1.9
		c0-0.5,0.2-0.9,0.6-1.2s0.8-0.5,1.2-0.5c0.2,0,0.5,0.1,0.9,0.2c0.4,0.1,0.8,0.2,1.1,0.2c0.9,0,1.9-0.1,2.9-0.4
		S770,381.9,770.3,381.4z"/>
</g>
</svg>
